<svg version="1" xmlns="http://www.w3.org/2000/svg" width="2166.667" height="2166.667" viewBox="0 0 1625.000000 1625.000000"><path d="M780.6.8c-.3.5.1.9.9.9s1.2-.4.9-.9c-.3-.4-.7-.8-.9-.8-.2 0-.6.4-.9.8zM840 .4c0 .2.7.7 1.6 1 .8.3 1.2.2.9-.4-.6-1-2.5-1.4-2.5-.6zM761.5 2c-.3.6.1.7.9.4 1.8-.7 2.1-1.4.7-1.4-.6 0-1.3.4-1.6 1zM765.8 1.7c.6.2 1.8.2 2.5 0 .6-.3.1-.5-1.3-.5-1.4 0-1.9.2-1.2.5zM851.8 1.7c.7.3 1.6.2 1.9-.1.4-.3-.2-.6-1.3-.5-1.1 0-1.4.3-.6.6zM857.8 1.7c.6.2 1.8.2 2.5 0 .6-.3.1-.5-1.3-.5-1.4 0-1.9.2-1.2.5zM864 2c.8.5 2 1 2.5 1 .6 0 .3-.5-.5-1s-1.9-1-2.5-1c-.5 0-.3.5.5 1zM747.8 2.7c.7.3 1.6.2 1.9-.1.4-.3-.2-.6-1.3-.5-1.1 0-1.4.3-.6.6zM751.8 2.7c.7.3 1.6.2 1.9-.1.4-.3-.2-.6-1.3-.5-1.1 0-1.4.3-.6.6zM755.8 2.7c.6.2 1.8.2 2.5 0 .6-.3.1-.5-1.3-.5-1.4 0-1.9.2-1.2.5zM871.8 2.7c.7.3 1.6.2 1.9-.1.4-.3-.2-.6-1.3-.5-1.1 0-1.4.3-.6.6zM738.8 3.7c.7.3 1.6.2 1.9-.1.4-.3-.2-.6-1.3-.5-1.1 0-1.4.3-.6.6zM742.8 3.7c.6.2 1.8.2 2.5 0 .6-.3.1-.5-1.3-.5-1.4 0-1.9.2-1.2.5zM882.8 3.7c.7.3 1.6.2 1.9-.1.4-.3-.2-.6-1.3-.5-1.1 0-1.4.3-.6.6zM890.7 4.1c.7.7 1.5 1 1.8.7.3-.3-.2-.9-1.2-1.2-1.4-.6-1.5-.5-.6.5zM724 5c-.8.5-1 1-.5 1 .6 0 1.7-.5 2.5-1s1.1-1 .5-1c-.5 0-1.7.5-2.5 1zM729.8 4.7c.6.2 1.8.2 2.5 0 .6-.3.1-.5-1.3-.5-1.4 0-1.9.2-1.2.5zM895.3 4.7c.9.2 2.3.2 3 0 .6-.3-.1-.5-1.8-.5-1.6 0-2.2.2-1.2.5zM718.8 5.7c.6.2 1.8.2 2.5 0 .6-.3.1-.5-1.3-.5-1.4 0-1.9.2-1.2.5zM903.3 5.7c.9.2 2.3.2 3 0 .6-.3-.1-.5-1.8-.5-1.6 0-2.2.2-1.2.5zM908.7 6.1c.7.7 1.5 1 1.8.7.3-.3-.2-.9-1.2-1.2-1.4-.6-1.5-.5-.6.5zM712.8 6.7c.7.3 1.6.2 1.9-.1.4-.3-.2-.6-1.3-.5-1.1 0-1.4.3-.6.6zM700 8c-.8.5-1 1-.5 1 .6 0 1.7-.5 2.5-1s1.1-1 .5-1c-.5 0-1.7.5-2.5 1zM704.8 7.7c.6.2 1.8.2 2.5 0 .6-.3.1-.5-1.3-.5-1.4 0-1.9.2-1.2.5zM918.8 7.7c.6.2 1.8.2 2.5 0 .6-.3.1-.5-1.3-.5-1.4 0-1.9.2-1.2.5zM923.7 8.1c.7.7 1.5 1 1.8.7.3-.3-.2-.9-1.2-1.2-1.4-.6-1.5-.5-.6.5zM927.8 8.7c.7.3 1.6.2 1.9-.1.4-.3-.2-.6-1.3-.5-1.1 0-1.4.3-.6.6zM689.8 9.7c.7.3 1.6.2 1.9-.1.4-.3-.2-.6-1.3-.5-1.1 0-1.4.3-.6.6zM933.8 9.7c.6.2 1.8.2 2.5 0 .6-.3.1-.5-1.3-.5-1.4 0-1.9.2-1.2.5zM683.3 10.7c.9.2 2.3.2 3 0 .6-.3-.1-.5-1.8-.5-1.6 0-2.2.2-1.2.5zM939.8 10.7c.6.2 1.8.2 2.5 0 .6-.3.1-.5-1.3-.5-1.4 0-1.9.2-1.2.5zM677.8 11.7c.6.2 1.8.2 2.5 0 .6-.3.1-.5-1.3-.5-1.4 0-1.9.2-1.2.5zM669.6 12.9c-.3.4.6.6 1.9.3 1.4-.2 2.5-.6 2.5-.8 0-.8-3.9-.4-4.4.5zM950.8 12.7c.7.3 1.6.2 1.9-.1.4-.3-.2-.6-1.3-.5-1.1 0-1.4.3-.6.6zM665.8 13.7c.7.3 1.6.2 1.9-.1.4-.3-.2-.6-1.3-.5-1.1 0-1.4.3-.6.6zM957.8 13.7c.7.3 1.6.2 1.9-.1.4-.3-.2-.6-1.3-.5-1.1 0-1.4.3-.6.6zM658.6 14.9c-.4.5.3.7 1.4.4 2.3-.6 2.6-1.3.6-1.3-.8 0-1.7.4-2 .9zM962.8 14.7c.7.3 1.6.2 1.9-.1.4-.3-.2-.6-1.3-.5-1.1 0-1.4.3-.6.6zM651.5 16c-1.6.7-1.7.9-.3.9.9.1 2-.4 2.3-.9.7-1.1.7-1.1-2 0zM969 15.4c0 .2.7.7 1.6 1 .8.3 1.2.2.9-.4-.6-1-2.5-1.4-2.5-.6zM645.8 17.7c.6.2 1.8.2 2.5 0 .6-.3.1-.5-1.3-.5-1.4 0-1.9.2-1.2.5zM977.8 17.7c.7.3 1.6.2 1.9-.1.4-.3-.2-.6-1.3-.5-1.1 0-1.4.3-.6.6zM981 18c0 .5.5 1 1.1 1 .5 0 .7-.5.4-1-.3-.6-.8-1-1.1-1-.2 0-.4.4-.4 1zM639.6 18.9c-.4.5.3.7 1.4.4 2.3-.6 2.6-1.3.6-1.3-.8 0-1.7.4-2 .9zM634 20c-1.8 1.2-.2 1.2 2.5 0 1.3-.6 1.5-.9.5-.9-.8 0-2.2.4-3 .9zM986.8 19.7c.7.3 1.6.2 1.9-.1.4-.3-.2-.6-1.3-.5-1.1 0-1.4.3-.6.6zM629.5 21c-.3.6.1.7.9.4 1.8-.7 2.1-1.4.7-1.4-.6 0-1.3.4-1.6 1zM991.8 20.7c.7.3 1.6.2 1.9-.1.4-.3-.2-.6-1.3-.5-1.1 0-1.4.3-.6.6zM995.8 21.7c.7.3 1.6.2 1.9-.1.4-.3-.2-.6-1.3-.5-1.1 0-1.4.3-.6.6zM619.8 23.7c.7.3 1.6.2 1.9-.1.4-.3-.2-.6-1.3-.5-1.1 0-1.4.3-.6.6zM1006.8 24.2c.6.6 1.8.8 2.8.6 1.4-.3 1.2-.5-.9-1-1.9-.3-2.5-.2-1.9.4zM614.8 24.7c.7.3 1.6.2 1.9-.1.4-.3-.2-.6-1.3-.5-1.1 0-1.4.3-.6.6zM1015.7 26.1c.7.7 1.5 1 1.8.7.3-.3-.2-.9-1.2-1.2-1.4-.6-1.5-.5-.6.5zM607.8 26.7c.7.3 1.6.2 1.9-.1.4-.3-.2-.6-1.3-.5-1.1 0-1.4.3-.6.6zM603.8 27.7c.7.3 1.6.2 1.9-.1.4-.3-.2-.6-1.3-.5-1.1 0-1.4.3-.6.6zM1019.8 27.7c.7.3 1.6.2 1.9-.1.4-.3-.2-.6-1.3-.5-1.1 0-1.4.3-.6.6zM596.5 29c-1.6.7-1.7.9-.3.9.9.1 2-.4 2.3-.9.7-1.1.7-1.1-2 0zM1026.8 29.2c.5.5 1.6.8 2.3.6.8-.3.3-.7-1-1.1-1.7-.4-2.1-.3-1.3.5zM1031 30.4c0 .2.7.7 1.6 1 .8.3 1.2.2.9-.4-.6-1-2.5-1.4-2.5-.6zM587.6 31.9c-.4.5.3.7 1.4.4 2.3-.6 2.6-1.3.6-1.3-.8 0-1.7.4-2 .9zM1035 31.4c0 .2.7.7 1.6 1 .8.3 1.2.2.9-.4-.6-1-2.5-1.4-2.5-.6zM583.5 33c-1.6.7-1.7.9-.3.9.9.1 2-.4 2.3-.9.7-1.1.7-1.1-2 0zM1042.5 34c1.1.5 2.7.9 3.5.9.9 0 .8-.4-.5-.9-1.1-.5-2.7-.9-3.5-.9-.9 0-.8.4.5.9zM577.6 34.9c-.4.5.3.7 1.4.4 2.3-.6 2.6-1.3.6-1.3-.8 0-1.7.4-2 .9zM570 37c-.9.6-1 1-.3 1 .6 0 1.5-.5 1.8-1 .8-1.2.4-1.2-1.5 0zM1051.8 36.7c.7.3 1.6.2 1.9-.1.4-.3-.2-.6-1.3-.5-1.1 0-1.4.3-.6.6zM1056 38c.8.5 2 1 2.5 1 .6 0 .3-.5-.5-1s-1.9-1-2.5-1c-.5 0-.3.5.5 1zM563.5 39c-1.3.6-1.5.9-.5.9.8 0 2.2-.4 3-.9 1.8-1.2.2-1.2-2.5 0zM558.5 41c-.3.6.1.7.9.4 1.8-.7 2.1-1.4.7-1.4-.6 0-1.3.4-1.6 1zM551.5 43c-1.6.7-1.7.9-.3.9.9.1 2-.4 2.3-.9.7-1.1.7-1.1-2 0zM1071 43c.8.5 2.2.9 3 .9 1 0 .8-.3-.5-.9-2.7-1.2-4.3-1.2-2.5 0zM543 46c-.8.5-1 1-.5 1 .6 0 1.7-.5 2.5-1s1.1-1 .5-1c-.5 0-1.7.5-2.5 1zM1080 46c.8.5 2 1 2.5 1 .6 0 .3-.5-.5-1s-1.9-1-2.5-1c-.5 0-.3.5.5 1zM533.5 49.5c-2.5 1.2-2.6 1.4-.5.9 1.4-.4 2.9-1 3.5-1.5 1.2-1.2.5-1.1-3 .6zM1094 51c.8.5 2 1 2.5 1 .6 0 .3-.5-.5-1s-1.9-1-2.5-1c-.5 0-.3.5.5 1zM1099 53c.8.5 2 1 2.5 1 .6 0 .3-.5-.5-1s-1.9-1-2.5-1c-.5 0-.3.5.5 1zM519 55c-.8.5-1 1-.5 1 .6 0 1.7-.5 2.5-1s1.1-1 .5-1c-.5 0-1.7.5-2.5 1zM1107 56c.8.5 2 1 2.5 1 .6 0 .3-.5-.5-1s-1.9-1-2.5-1c-.5 0-.3.5.5 1zM514.8 56.7c.7.3 1.6.2 1.9-.1.4-.3-.2-.6-1.3-.5-1.1 0-1.4.3-.6.6zM1112 58c.8.5 2 1 2.5 1 .6 0 .3-.5-.5-1s-1.9-1-2.5-1c-.5 0-.3.5.5 1zM508.5 59c-.3.6.1.7.9.4 1.8-.7 2.1-1.4.7-1.4-.6 0-1.3.4-1.6 1zM1117.7 60.1c.7.7 1.5 1 1.8.7.3-.3-.2-.9-1.2-1.2-1.4-.6-1.5-.5-.6.5zM503 61c-.8.5-1 1-.5 1 .6 0 1.7-.5 2.5-1s1.1-1 .5-1c-.5 0-1.7.5-2.5 1zM1122 62c.8.5 2 1 2.5 1 .6 0 .3-.5-.5-1s-1.9-1-2.5-1c-.5 0-.3.5.5 1zM499 63c-.9.6-1 1-.3 1 .6 0 1.5-.5 1.8-1 .8-1.2.4-1.2-1.5 0zM494 65c-.8.5-1 1-.5 1 .6 0 1.7-.5 2.5-1s1.1-1 .5-1c-.5 0-1.7.5-2.5 1zM1129.5 65c.3.4 1.4 1 2.5 1.3 1.1.3 1.8.2 1.5-.3-.3-.4-1.4-1-2.5-1.3-1.1-.3-1.8-.2-1.5.3zM488.4 67.6c-1.8 1.4-1.8 1.4.6.3 3.1-1.4 3.6-1.9 2.4-1.9-.6 0-1.9.7-3 1.6zM1135 67.4c0 .2.7.7 1.6 1 .8.3 1.2.2.9-.4-.6-1-2.5-1.4-2.5-.6zM1139.8 69.7c.7.3 1.6.2 1.9-.1.4-.3-.2-.6-1.3-.5-1.1 0-1.4.3-.6.6zM480 71c-.8.5-1 1-.5 1 .6 0 1.7-.5 2.5-1s1.1-1 .5-1c-.5 0-1.7.5-2.5 1zM1144.4 71.4c1.1.9 2.4 1.6 3 1.6 1.2 0 .7-.5-2.4-1.9-2.4-1.1-2.4-1.1-.6.3zM476 73c-.9.6-1 1-.3 1 .6 0 1.5-.5 1.8-1 .8-1.2.4-1.2-1.5 0zM472 75c-.9.6-1 1-.3 1 .6 0 1.5-.5 1.8-1 .8-1.2.4-1.2-1.5 0zM466.4 77.6c-1.8 1.4-1.8 1.4.6.3 3.1-1.4 3.6-1.9 2.4-1.9-.6 0-1.9.7-3 1.6zM1158 78c.8.5 2 1 2.5 1 .6 0 .3-.5-.5-1s-1.9-1-2.5-1c-.5 0-.3.5.5 1zM1166.1 81.4c.2.2 1.5.9 2.9 1.5 2.4 1.1 2.4 1.1.6-.3-1.6-1.3-4.9-2.4-3.5-1.2zM451.4 84.6c-1.8 1.4-1.8 1.4.6.3 3.1-1.4 3.6-1.9 2.4-1.9-.6 0-1.9.7-3 1.6zM1172.5 85c.3.4 1.4 1 2.5 1.3 1.1.3 1.8.2 1.5-.3-.3-.4-1.4-1-2.5-1.3-1.1-.3-1.8-.2-1.5.3zM546.5 88.6c-5.6 3.3-13 8.3-16.5 11.1-.8.6-4.3 3.3-7.6 6-11.9 9.4-38 34-44.9 42.4-1.1 1.3-8.3 9.8-16.1 18.9-23.9 27.9-51.4 62.4-51.4 64.4 0 .3 3.7.4 8.3.1 4.5-.2 14.1-.7 21.2-1 12.5-.6 13.1-.7 15.3-3.3 3-3.5 16.3-18.1 22.4-24.6l4.8-5.1-.5 5c-.3 2.7-.7 10.4-1 17.1l-.5 12.1h16c15.6 0 16 0 16.1-2.1.6-16.2 9.7-49.6 29.8-109.6 6.4-19.2 11.5-35 11.2-35-.3 0-3.3 1.6-6.6 3.6zM446.5 87c-.3.6.1.7.9.4 1.8-.7 2.1-1.4.7-1.4-.6 0-1.3.4-1.6 1zM1178.7 88.1c.7.7 1.5 1 1.8.7.3-.3-.2-.9-1.2-1.2-1.4-.6-1.5-.5-.6.5zM442.5 89c-.3.6.1.7.9.4 1.8-.7 2.1-1.4.7-1.4-.6 0-1.3.4-1.6 1zM1182 89.4c0 .2.7.7 1.6 1 .8.3 1.2.2.9-.4-.6-1-2.5-1.4-2.5-.6zM439 91c-.9.6-1 1-.3 1 .6 0 1.5-.5 1.8-1 .8-1.2.4-1.2-1.5 0zM1186 91.4c0 .2.7.7 1.6 1 .8.3 1.2.2.9-.4-.6-1-2.5-1.4-2.5-.6zM435 93c-.9.6-1 1-.3 1 .6 0 1.5-.5 1.8-1 .8-1.2.4-1.2-1.5 0zM1190.7 94.1c.7.7 1.5 1 1.8.7.3-.3-.2-.9-1.2-1.2-1.4-.6-1.5-.5-.6.5zM429.8 95.6c-3.8 2-3.6 2.8.2.9 1.7-.9 3-1.8 3-2 0-.7-.1-.6-3.2 1.1zM1197.1 97.4c1.3 1.1 9.9 5.7 9.9 5.3 0-.6-8.6-5.7-9.6-5.7-.4 0-.5.2-.3.4z"/><path d="M423 99.5c-1.4.8-2 1.4-1.4 1.5.5 0 1.9-.7 3-1.5 2.4-1.8 1.6-1.9-1.6 0zM417.4 102.6c-1.8 1.4-1.8 1.5.4.4 1.2-.6 2.2-1.3 2.2-1.5 0-.8-.5-.6-2.6 1.1zM413 105c-.9.6-1 1-.3 1 .6 0 1.5-.5 1.8-1 .8-1.2.4-1.2-1.5 0zM1213.2 106.5c2 1.4 4 2.5 4.5 2.5.4 0-.9-1.1-2.9-2.5s-4-2.5-4.5-2.5c-.4 0 .9 1.1 2.9 2.5zM408.4 107.6c-1.8 1.4-1.8 1.5.4.4 1.2-.6 2.2-1.3 2.2-1.5 0-.8-.5-.6-2.6 1.1zM403.4 110.6c-1.8 1.4-1.8 1.5.4.4 1.2-.6 2.2-1.3 2.2-1.5 0-.8-.5-.6-2.6 1.1zM1219 109.4c0 .3.9 1 2 1.6 1.1.6 2 .8 2 .6 0-.3-.9-1-2-1.6-1.1-.6-2-.8-2-.6zM1226 113.9c1.4 1.1 3 2.1 3.5 2.1 1.1 0-.7-1.4-4-3.1-1.3-.7-1.2-.3.5 1zM771 114c-1 .6-1.4 3.4-1.4 10.2 0 10 1.2 37.1 1.8 40.3.2 1.1.7 5.6 1 10 .4 4.4.9 8.7 1.1 9.5.2.8.6 3.7.9 6.5.4 2.7 1.1 8.4 1.7 12.5 1.4 10.8 1.7 12.7 2.4 20.5.4 3.8.9 7.8 1.1 8.7.3 1.8 1 9.2 2.3 23.3 1.8 20.2.7 58.3-2.3 75-.3 1.6-1 6.1-1.6 10-3.6 21.9-13.2 50.6-26.3 79-13.9 30-30.4 49.1-48.7 56.3-9.3 3.7-18.9 4.8-42.3 4.6-21.3-.1-27.9.4-29.9 2.4-.7.7-.1 3.9 1.7 9.4 6.1 18.2 8.5 20 28.5 20.9 22 .9 39.7.4 46.9-1.5 16.1-4.3 30.6-14.7 45.6-32.7 26.6-32 44.1-67.2 54.4-109.2 6.4-25.8 8.4-44 8.5-75.7.1-32.9-1.6-46.9-12.7-102-2.5-12.4-4.8-24.9-5.1-27.9l-.5-5.4 3.6 3.4c15.2 14.3 24.4 25.5 39.8 48.3 20.1 29.8 29 41.4 41.2 53.8 14.7 14.9 29.9 24.3 52.1 32.3 21.9 7.8 57.6 16.7 72.2 18 8 .7 13.2-1.4 24-10 12.9-10.1 16.2-11.3 33.7-11.6 22.3-.4 35.4-4.7 53.8-17.7 8.7-6.2 28.4-25.3 38.8-37.4l6.6-7.8 2.4 3.3c4.1 5.4 6.2 10.4 12.7 30.7 6.8 20.9 9.5 26.5 13.8 28.1 1.5.6 8.2.9 15.2.7l12.5-.3-.3-3c-1.7-13.8-16.3-61.4-25.5-82.5-6-13.9-16.9-35.6-21.3-42.5-5.8-9-17.6-18-22.6-17.3-2.2.3-2.3.6-2.4 13.8-.1 16.1-.8 22-4 32-4.6 14.7-15.1 28.3-33.7 43.8-37.1 30.9-75.9 40.4-134.2 33.1-29.1-3.7-61.1-17.4-78.8-33.8-4.5-4.2-12.5-14.5-22.2-28.6-12.5-18.4-22.9-30.9-38.5-46.5-16.3-16.3-28.5-27-38.5-33.7-9.2-6.2-25.9-14.3-27.5-13.3zM395.5 115c-.3.6.1.7.9.4 1.8-.7 2.1-1.4.7-1.4-.6 0-1.3.4-1.6 1zM1231 116.4c0 .3.9 1 2 1.6 1.1.6 2 .8 2 .6 0-.3-.9-1-2-1.6-1.1-.6-2-.8-2-.6zM388.4 119.6c-1.8 1.4-1.8 1.5.4.4 1.2-.6 2.2-1.3 2.2-1.5 0-.8-.5-.6-2.6 1.1zM1237.2 120.6c1 1 2 1.6 2.2 1.3.3-.3-.5-1.1-1.7-1.8-2.1-1.3-2.1-1.2-.5.5zM382.9 123.1l-2.4 2 2.8-1.7c1.5-.9 2.7-1.8 2.7-2 0-.8-.8-.4-3.1 1.7zM1241.4 122.9c.7 1.1 4.6 3.5 4.6 2.8 0-.3-1.2-1.2-2.6-2.2-1.5-.9-2.3-1.2-2-.6zM377.4 126.6c-1.8 1.4-1.8 1.5.4.4 1.2-.6 2.2-1.3 2.2-1.5 0-.8-.5-.6-2.6 1.1zM1250 128.4c0 .3.9 1 2 1.6 1.1.6 2 .8 2 .6 0-.3-.9-1-2-1.6-1.1-.6-2-.8-2-.6zM369.5 131.6l-3 2.6 3.3-2.2c1.7-1.2 3.2-2.3 3.2-2.6 0-.7-.4-.5-3.5 2.2zM1255.4 131.9c.7 1.1 4.6 3.5 4.6 2.8 0-.3-1.2-1.2-2.6-2.2-1.5-.9-2.3-1.2-2-.6zM360.7 137.1c-2.6 1.7-4.7 3.3-4.7 3.5 0 .3.6.1 1.3-.3.6-.5 2.9-1.9 5-3.2 3.2-2 4.4-3.1 3.4-3.1-.2 0-2.5 1.4-5 3.1zM1261.4 135.9c.7 1.1 4.6 3.5 4.6 2.8 0-.3-1.2-1.2-2.6-2.2-1.5-.9-2.3-1.2-2-.6zM352 143.1c-2.2 1.8-2.2 1.9-.3 1 1.2-.6 2.5-1.6 2.8-2.1.9-1.5.3-1.2-2.5 1.1zM1270 141.4c0 .2 1.4 1.4 3 2.6 1.7 1.2 3 1.9 3 1.6 0-.2-1.3-1.4-3-2.6-1.6-1.2-3-1.9-3-1.6zM347 146.5c-1.1 1.3-1 1.4.4.9.9-.3 1.6-1 1.6-1.5 0-1.3-.6-1.1-2 .6zM1277 146.3c0 .2 1.5 1.4 3.3 2.7 2 1.5 2.7 1.7 1.8.6-1.3-1.6-5.1-4.1-5.1-3.3zM339.9 151.7c-1.3 1.6-1.2 1.7.4.4 1.6-1.3 2.1-2.1 1.3-2.1-.2 0-1 .8-1.7 1.7zM1284 151.4c0 .2.8 1 1.8 1.7 1.5 1.3 1.6 1.2.3-.4s-2.1-2.1-2.1-1.3zM334.5 155.6l-3 2.6 3.3-2.2c1.7-1.2 3.2-2.3 3.2-2.6 0-.7-.4-.5-3.5 2.2zM1288 154.3c0 .2 1.5 1.4 3.3 2.7 2 1.5 2.7 1.7 1.8.6-1.3-1.6-5.1-4.1-5.1-3.3zM328.9 159.7c-1.3 1.6-1.2 1.7.4.4 1.6-1.3 2.1-2.1 1.3-2.1-.2 0-1 .8-1.7 1.7zM324.9 162.7c-1.3 1.6-1.2 1.7.4.4 1.6-1.3 2.1-2.1 1.3-2.1-.2 0-1 .8-1.7 1.7zM1298.4 161.8c.8 1.3 6.6 5.6 6.6 4.9 0-.3-1.7-1.7-3.7-3.3-2-1.5-3.3-2.3-2.9-1.6zM318.5 167.6l-4 3.6 4.3-3.2c3.6-2.7 4.9-4 4-4-.2 0-2.1 1.6-4.3 3.6zM1307.5 169c1 1.1 2 2 2.3 2 .3 0-.3-.9-1.3-2s-2-2-2.3-2c-.3 0 .3.9 1.3 2zM307.3 176.1c-3.5 2.7-6.3 5.2-6.3 5.4 0 .3 2.9-1.8 6.5-4.6 5.6-4.4 7.3-6 6.3-5.9-.2.1-3.1 2.3-6.5 5.1zM1311 171.3c0 .2 3 2.7 6.8 5.6 3.7 2.9 4.9 3.6 2.7 1.6-4.2-3.9-9.5-7.9-9.5-7.2zM1325 182.3c0 .2 2.8 2.8 6.3 5.8 3.4 2.9 5.6 4.6 4.8 3.6-1.6-2-11.1-10.1-11.1-9.4zM293.9 187.2c-2.5 2.4-3.4 3.4-2 2.2 1.4-1.1 3.9-3 5.5-4.2 1.6-1.2 2.5-2.2 2-2.2s-3 1.9-5.5 4.2zM272 205.9c-8.5 7.6-16.8 15.4-18.5 17.2-1.6 1.8.4.2 4.5-3.6 4.1-3.9 12.6-11.4 18.8-16.9 9.9-8.8 11.9-10.6 11-10.6-.2 0-7.3 6.3-15.8 13.9zM1338 193.3c0 .2 2.6 2.6 5.7 5.3 3.1 2.7 5.4 4.4 5 3.7-.9-1.4-10.7-9.7-10.7-9zM1355.5 209c2.1 2.2 4.1 4 4.4 4 .3 0-1.3-1.8-3.4-4-2.1-2.2-4.1-4-4.4-4-.3 0 1.3 1.8 3.4 4zM1361 213.9c0 .6.4 1.3 1 1.6.6.3.7-.1.4-.9-.7-1.8-1.4-2.1-1.4-.7zM1370.7 223c4 4.1 7.4 7.2 7.5 7 .2-.3-3-3.6-7.2-7.5l-7.5-6.9 7.2 7.4zM248 228c-.6 1.1-.8 2-.6 2 .3 0 1-.9 1.6-2 .6-1.1.8-2 .6-2-.3 0-1 .9-1.6 2zM243.9 231.7c-1.3 1.6-1.2 1.7.4.4.9-.7 1.7-1.5 1.7-1.7 0-.8-.8-.3-2.1 1.3zM1381.6 233.3c.3 1 .9 1.5 1.2 1.2.3-.3 0-1.1-.7-1.8-1-.9-1.1-.8-.5.6zM240.5 235c-.3.6.1.7.9.4 1.8-.7 2.1-1.4.7-1.4-.6 0-1.3.4-1.6 1zM236.4 239.2l-1.9 2.3 2.3-1.9c1.2-1.1 2.2-2.1 2.2-2.3 0-.8-.8-.2-2.6 1.9zM1387.5 239c1 1.1 2 2 2.3 2 .3 0-.3-.9-1.3-2s-2-2-2.3-2c-.3 0 .3.9 1.3 2zM231.5 244c-2.6 2.8-1.5 3.1 1.2.3 1.2-1.3 1.9-2.3 1.4-2.3-.4 0-1.6.9-2.6 2zM1391.7 244c1 1.1 1.9 2 2.1 2 .1 0-.2-.9-.8-2-.6-1.1-1.5-2-2-2-.6 0-.2.9.7 2zM222 254.5l-6.4 7 6.9-6.7c3.8-3.7 6.7-6.9 6.5-7-.3-.2-3.4 2.8-7 6.7zM1397 248.8c0 .5 1 1.7 2.1 2.8 1.2 1 6.2 6.3 11.2 11.8 4.9 5.4 8.8 9.4 8.6 8.8-.6-1.6-21.9-24.4-21.9-23.4zM253.6 263.1c-4.8 1.3-16.3 8.9-20.6 13.6-8.8 9.5-14.8 17.9-15 20.8 0 1.1 334.6 1.3 335.7.2.3-.4-.9-3.2-2.8-6.4-4.8-8.1-18-21.1-25.7-25.1l-6.3-3.4-131.5-.1c-72.3-.1-132.5.1-133.8.4zM209.1 268.4l-3.5 4.1 3.9-3.7c2.2-2.1 3.7-3.9 3.5-4.1-.3-.2-2 1.5-3.9 3.7zM1420 273.8c.1.4 3.1 3.9 6.8 7.8 6.6 6.9 5.5 5.3-2.6-3.8-2.3-2.6-4.2-4.4-4.2-4zM197 282c-3.4 3.8-6 7-5.7 7 .3 0 3.3-3.2 6.7-7 3.4-3.9 6-7 5.7-7-.3 0-3.3 3.1-6.7 7zM188.5 292c-1 1.1-1.6 2.2-1.4 2.4.2.2 1.2-.7 2.2-2 2.2-2.9 1.7-3.2-.8-.4zM1435.6 292.2c1 1.4 2.1 2.4 2.3 2.2.3-.3-.6-1.5-1.8-2.7l-2.4-2.2 1.9 2.7zM181.7 300.1c-2 2.7-3.5 4.9-3.3 4.9.7 0 7.9-9 7.5-9.4-.2-.2-2.1 1.9-4.2 4.5zM1439 295.7c0 .5 1 1.8 2.3 2.9l2.2 1.9-2-2.5c-1.1-1.4-2.1-2.7-2.2-2.9-.2-.2-.3 0-.3.6zM1443 301.4c0 .2.8 1 1.8 1.7 1.5 1.3 1.6 1.2.3-.4s-2.1-2.1-2.1-1.3zM1451.4 311.7c3.2 4 6 7.3 6.3 7.3.6 0-8.7-11.8-10.6-13.2-.8-.7 1.1 2 4.3 5.9zM175.4 308.2l-1.9 2.3 2.3-1.9c1.2-1.1 2.2-2.1 2.2-2.3 0-.8-.8-.2-2.6 1.9zM170 315c-1.7 2.2-2.9 4-2.7 4 .3 0 2-1.8 3.7-4 1.7-2.2 2.9-4 2.7-4-.3 0-2 1.8-3.7 4zM164.9 321.7c-1.3 1.6-1.2 1.7.4.4 1.6-1.3 2.1-2.1 1.3-2.1-.2 0-1 .8-1.7 1.7zM1460 323c1.2 1.6 2.4 3 2.6 3 .3 0-.4-1.4-1.6-3-1.2-1.7-2.4-3-2.6-3-.3 0 .4 1.3 1.6 3z"/><path d="M204 323.6c-2.7 1.2-6.7 4.5-9.6 7.7-5.6 6.5-15.7 22.8-14.6 23.8.4.4 7.7 1.9 16.2 3.3s16.4 2.8 17.5 3c1.1.2 4.2.7 6.8 1 8.7 1.3 41 17.1 53 26 6.5 4.9 21.2 19.5 26.2 26.1 8.3 11 16.2 25.4 23.8 43.1 1.9 4.3 8 18.5 13.7 31.4 5.6 12.9 13.3 30.5 17 39 33.2 76.2 41.3 94.9 42.5 97.5.7 1.6 5.8 13.3 11.3 26 5.5 12.6 14.5 33.3 20 46 31.9 73.2 43.2 99.2 59.8 137.3 10.1 23.2 19 43.7 19.8 45.5 1.7 3.6 12.1 27.6 22.1 50.7 3.7 8.5 7.5 17.3 8.5 19.5 1 2.2 3.2 7.4 5 11.5 1.8 4.1 4 9.3 5 11.5 3.4 7.8 12 27.5 27 62 8.4 19.2 15.8 36.3 16.5 38 2.8 6.3 12.8 29.1 25.5 58.5 7.3 16.8 14 32.3 15 34.5 2.7 6 17.2 39.3 35.7 82 9.1 20.9 17.8 40.8 19.4 44.3 1.6 3.5 2.9 6.6 2.9 6.8 0 .3.9 2.4 1.9 4.7 1 2.3 5.1 11.6 9.1 20.7 7.2 16.4 10 22.8 12.6 28.5 6.8 15.3 23.4 53.8 26.1 61 4.4 11.2 5 18.6 2.1 26.4-2 5.6-6.6 12.4-10 14.9-.9.7-2.3 1.8-3 2.5-2.2 2.2-10 5.4-16 6.6-3.2.7-11.9 1.4-19.4 1.7-7.4.2-14.4.9-15.5 1.4-1 .6-3 2.9-4.3 5.3-2.5 4.3-11.1 28.5-10.4 29.2 1.5 1.5 29.4 1.8 157.8 1.7 79.5-.1 145.8-.3 147.4-.4 1.8-.2 3.7-1.3 4.9-3 1.9-2.5 1.9-3.2.8-8.1-1.1-4.9-8.2-20.4-9.9-21.7-.4-.3-1.6-1.8-2.6-3.3-3-4.8-8.7-6.7-20.2-6.7-12.3 0-18.6-1.7-24.4-6.7-6.1-5.3-9.5-13.1-9.9-23.1-.4-12 1.4-17.6 16-51.7.5-1.1 8.3-20.2 17.4-42.5 9.2-22.3 17.2-41.9 18-43.5.7-1.7 2.8-6.6 4.5-11 1.7-4.4 5.9-14.5 9.2-22.5 3.3-8 6.3-15.4 6.8-16.5.4-1.1 1.5-3.6 2.3-5.5.8-1.9 3.6-8.7 6.1-15 2.6-6.3 5.1-12.4 5.6-13.5.5-1.1 4.1-9.9 8-19.5 4-9.6 8-19.4 9.1-21.7 1-2.4 1.9-4.5 1.9-4.8 0-.4.9-2.5 1.9-4.9 1.1-2.3 3-6.7 4.1-9.7 1.2-3 2.8-6.8 3.5-8.4.7-1.7 22.3-54.1 48-116.5 25.6-62.4 47-114.4 47.5-115.5.5-1.1 3.2-7.6 6-14.5s7.1-17.3 9.6-23.3c2.4-5.9 6.5-15.8 9-22 6.2-15.2 6-14.6 8.2-19.7 1.1-2.5 8.6-20.7 16.7-40.5s15.3-37.4 16-39c.7-1.7 11.7-28.4 24.5-59.5 27-65.9 24.4-59.6 26.3-64 2.8-6.5 30.9-74.5 31.1-75.5.2-.6 1-2.6 1.8-4.5 2.7-6 13.8-33 18.5-44.5 2.4-6.1 5-12.4 5.7-14 2.5-5.5 35.2-85.8 40.6-99.5 6.1-15.7 10.6-23.1 15.5-25.4 4.8-2.3 24.7-2.3 33-.1 11.2 3 16.4 6.3 28.6 18.2 6.4 6.2 11.8 11.3 12.1 11.3.3 0 .9-3.5 1.3-7.8.5-6.3.3-8.9-1.4-14.2-6.8-21.7-27.9-38.8-54.1-43.9-13.1-2.5-14.7-2.7-29-3.7-16.2-1-271.4-1.1-277.5-.1-8.1 1.4-12.3 4.4-20.1 14.2-2.1 2.7-4.2 5.2-4.6 5.5-1.3 1-3.8 7.9-3.8 10.3 0 4.1 3.3 5.8 15.7 8.3 27.6 5.5 48.2 15 65.6 30.4 8.4 7.5 16.8 19.9 19.7 29.2 2 6.4 1.9 19.6 0 32.8-2.5 16.9-4.7 24.8-11.8 42.5-11.4 28.6-67.4 168-68.7 171-1.7 3.8-21.2 52.4-23.5 58.5-2 5.3-17.7 44.6-19 47.5-1.4 3.2-4.4 10.5-28.4 70.5-12.5 31.1-23.1 57.4-23.6 58.5-.9 1.9-27.2 67.4-51.4 128-6.4 15.9-12.1 29.9-12.6 31-.8 1.8-17.7 44.1-20.2 50.5-1 2.7 1 7.1-42.3-93-10.8-25-20.2-46.9-21-48.5-1.7-3.8-6.4-14.6-30.9-71.5-10.9-25-20.3-46.9-21.1-48.5-.7-1.7-7.3-16.7-14.5-33.5-7.3-16.8-15.3-35.5-18-41.5-2.6-6.1-10.7-24.7-18-41.5-7.3-16.8-13.8-31.9-14.6-33.5-.7-1.7-6.5-15.2-12.9-30-6.5-14.9-12.3-28.4-13-30-.8-1.7-6.6-15.2-13.1-30-27.3-63.4-30.8-71.4-33.9-78.5-3.4-7.8-26.3-60.6-34.2-79-2.5-5.8-4.9-11-5.3-11.5-2.1-2.7-12.5-24.6-17.8-37.5-8.5-20.4-12.7-35-10.3-35 .6 0 9.5-1.6 19.8-3.6 10.4-1.9 23.8-4.5 29.8-5.6 6.1-1.1 11.7-2.2 12.5-2.3.8-.2 2.3-.4 3.3-.4 3.1-.2 1.8-2.3-6.1-10-8.5-8.2-24.9-18.7-34.9-22.3l-5.8-2.1-180.9-.2-180.9-.1-4.7 2.2zm1095.9 57.6c-3 10.7-12.7 34.2-25.9 62.3-6.9 14.7-11.1 24.5-29 67.2-9.4 22.5-17.7 42.1-18.5 43.8-.7 1.6-9.9 23.5-20.5 48.5-10.5 25-19.5 46.4-20 47.5-1.3 2.8-34.5 82.2-38.7 92.5-1.8 4.7-4 9.9-4.8 11.6-.8 1.7-10.7 25.3-22 52.5s-21.2 50.7-21.9 52.4c-.8 1.6-3.7 8.6-6.5 15.5-2.9 6.9-5.6 13.4-6.1 14.5-1 2.1-13.3 31.6-39.9 95.5-16.9 40.5-19.8 47.6-21.1 50.5-.5 1.1-6.8 16.4-14 34s-16 39-19.5 47.5-13.8 33.5-22.9 55.5c-17.6 43-18.2 44.5-20.2 49-.7 1.6-8.3 20.1-16.9 41-18.7 45.3-31.4 76.1-36 87-3.9 9.2-26.3 64.5-38.1 93.7l-7.9 19.8h-20.7c-11.5 0-20.8-.2-20.8-.4 0-.5 20.4-49.8 22-53.1.5-1.1 9.3-22.3 19.6-47 10.2-24.8 19.2-46.4 20-48 .7-1.7 2.9-6.8 4.7-11.5 1.9-4.7 10.3-24.9 18.7-45 8.3-20.1 23.5-56.8 33.6-81.5 10.2-24.8 18.9-45.9 19.4-47 .5-1.1 3.9-9.4 7.5-18.5 3.7-9.1 7.3-17.9 8-19.5 3.3-7.8 52.1-126.6 61.7-150.5 1.6-4.1 3.6-8.9 4.3-10.5.7-1.7 5.9-14.3 11.5-28 5.6-13.8 12.5-30.4 15.2-37 2.7-6.6 5.6-13.8 6.5-16 .8-2.2 2.1-5.4 2.8-7 .7-1.7 4.8-11.6 9-22 4.2-10.5 8.3-20.4 9-22 .8-1.7 5.3-12.7 10-24.5 4.8-11.8 9.3-22.9 10-24.5 1.7-3.9 43.9-107.1 54-132 4.2-10.5 8.3-20.4 9-22 .8-1.7 5.5-13.1 10.5-25.5s12.5-30.7 16.6-40.7c4.1-10 8.5-21.1 9.9-24.7 3.9-10.5 22.1-46.2 29.3-57.6 22.7-35.9 42.5-57.3 64.3-69.4 3.5-2 6.5-3.6 6.6-3.6.1 0-.7 3.3-1.8 7.2zM520.5 459c5.3 12.4 10.5 24.3 11.5 26.5 1 2.2 4.4 10.1 7.5 17.5 3.2 7.4 6.8 15.7 8 18.5 1.2 2.7 9.1 21 17.5 40.5s16.1 37.5 17.3 40c1.1 2.5 3.2 7.4 4.7 11 1.5 3.6 8.7 20.2 16 37 7.3 16.8 18.7 43.3 25.5 59 6.7 15.7 13.1 30.5 14.2 33 1.1 2.5 2.6 5.8 3.3 7.5.7 1.6 8.4 19.6 17.2 40 8.8 20.3 19.4 44.9 23.5 54.5 4.1 9.6 8.3 19.3 9.3 21.5 1 2.2 6.8 15.7 13 30s12 27.8 13 30c1 2.2 3.7 8.5 6 14s5.1 12 6.3 14.5c1.1 2.5 3.2 7.4 4.7 11 1.5 3.6 9.4 21.8 17.5 40.5 14 32.4 21.2 49.1 53.3 123.5 7.7 17.9 15.6 35.9 17.5 40 9.4 20.8 10.6 32.3 4.1 39.2l-2.7 2.8-7.4-17.3c-4-9.4-8.7-20.4-10.4-24.2-1.8-3.9-3.7-8.4-4.4-10-.7-1.7-2.2-5-3.3-7.5-1.1-2.5-3.9-9-6.2-14.5-2.3-5.5-5.5-12.8-7.1-16.3-1.6-3.4-2.9-6.4-2.9-6.7 0-.2-5.1-12.2-11.4-26.7-6.3-14.5-16.4-38-22.6-52.3-6.2-14.3-12-27.8-13-30-1-2.2-3.9-9-6.4-15-2.6-6.1-5.4-12.4-6.1-14-.7-1.7-9.9-22.8-20.3-47s-27.5-63.8-38-88c-10.4-24.2-24.7-57.3-31.7-73.5-13.1-30.5-18.7-43.3-21-48.5-.8-1.7-10.7-24.6-22-51-11.4-26.4-24.2-56.1-28.5-66-4.3-9.9-11.5-26.6-16-37-4.5-10.5-8.8-20.4-9.5-22-7.9-17.1-25.6-60.4-26.8-65.6-2.8-11.1-5.4-30-5.6-38.9-.1-7.9 0-8.3 1.3-5.5.7 1.6 5.7 13.1 11.1 25.5zM161.8 325.7c-2.4 2.8-6 8.3-5.5 8.3.3 0 2.1-2.3 4.1-5 3.6-5 4.3-6.6 1.4-3.3zM1464.5 329c1 1.1 2 2 2.3 2 .3 0-.3-.9-1.3-2s-2-2-2.3-2c-.3 0 .3.9 1.3 2zM1469 335c1.2 1.6 2.4 3 2.6 3 .3 0-.4-1.4-1.6-3-1.2-1.7-2.4-3-2.6-3-.3 0 .4 1.3 1.6 3zM154.3 336.2c-4.3 5.7-6.6 9.1-5.8 8.6 1.2-.7 7.8-9.8 7.2-9.8-.3 0-.9.6-1.4 1.2zM1475 343.5c1.7 2.5 3.3 4.5 3.6 4.5.3 0-.9-2-2.6-4.5-1.7-2.5-3.3-4.5-3.6-4.5-.3 0 .9 2 2.6 4.5zM144.2 350.2c-3.6 5.4-4.4 6.8-3.9 6.8.2 0 2.1-2.5 4.1-5.5 2-3 3.4-5.5 3.2-5.5-.3 0-1.8 1.9-3.4 4.2zM1480.5 351.4c1 1.4 1.9 2.6 2.2 2.6.7 0-1.7-3.9-2.8-4.6-.6-.3-.3.5.6 2zM1485 357.7c1.3 1.8 2.5 3.3 2.7 3.3.8 0-1.7-3.8-3.3-5.1-1.1-.9-.9-.2.6 1.8zM135 364c-1.2 1.6-1.9 3-1.6 3 .2 0 1.4-1.4 2.6-3 1.2-1.7 1.9-3 1.6-3-.2 0-1.4 1.3-2.6 3zM1491 366.9c.5 1.1 1.5 2.3 2.1 2.7.6.3.3-.5-.6-2-2-3-3-3.5-1.5-.7zM131.4 369.2c-.4.7-1.4 2.4-2.2 3.8-1.4 2.4-1.3 2.4.3.5 2-2.4 3.7-5.5 3.1-5.5-.3 0-.8.6-1.2 1.2zM1498 377.7c1.7 2.9 3.4 5.3 3.7 5.3.6 0-3.7-7.1-5.5-9-.7-.8 0 .9 1.8 3.7zM123.6 381.5c-.9 1.4-2.3 3.7-3.2 5.2l-1.6 2.8 2-2.4c2.4-2.9 5.5-8.1 4.9-8.1-.3 0-1.2 1.1-2.1 2.5zM1504.9 388.5c.5 1.1 1.7 2.9 2.6 4l1.6 2-1-2c-.5-1.1-1.7-2.9-2.6-4l-1.6-2 1 2zM117.1 392.3c-1.3 2.1-1.2 2.1.5.5 1-1 1.6-2 1.3-2.2-.3-.3-1.1.5-1.8 1.7zM113 399c-.6 1.1-.8 2-.6 2 .3 0 1-.9 1.6-2 .6-1.1.8-2 .6-2-.3 0-1 .9-1.6 2zM1512.1 400.5c1.2 2.2 2.6 4.4 3.2 5 1.5 1.6-2-4.8-3.8-7-.9-1.1-.7-.2.6 2z"/><path d="M109.1 405.6c-1.2 2-2 3.8-1.8 4 .2.2 1.4-1.4 2.6-3.6 2.8-5 2.1-5.3-.8-.4zM1517.6 410.3c.3 1 .9 1.5 1.2 1.2.3-.3 0-1.1-.7-1.8-1-.9-1.1-.8-.5.6zM1520 415c.6 1.1 1.3 2 1.6 2 .2 0 0-.9-.6-2s-1.3-2-1.6-2c-.2 0 0 .9.6 2zM102.6 417.2l-1.8 3.3 2.1-2.5c1.8-2.2 2.6-4 1.8-4-.1 0-1.1 1.5-2.1 3.2zM1523 420c.6 1.1 1.3 2 1.6 2 .2 0 0-.9-.6-2s-1.3-2-1.6-2c-.2 0 0 .9.6 2zM99.1 423.7c-1 2.6-1 2.7.4.9.8-1.1 1.5-2.3 1.5-2.8 0-1.5-.7-.8-1.9 1.9zM1526 425.7c0 .6.8 1.7 1.8 2.4 1.6 1.3 1.6 1.3.2-.6-.8-1.1-1.6-2.2-1.7-2.4-.2-.2-.3 0-.3.6zM913.6 433.3c-5.4 12-28.4 57.9-34.6 69.2-6.5 11.8-24.1 39.3-27.2 42.6-.7.8-4 4.7-7.3 8.8-6 7.4-22.6 24.5-30.1 31-25.9 22.3-59.1 39.1-89.4 45.1-5.8 1.1-12.8 2.5-15.6 3.1-6 1.1-9.2 3.2-10.5 6.6-1.7 4.6-3.8-.4 93.1 225.3 4.8 11.3 24 55.8 42.5 99 39 90.9 37.1 86.5 37.8 85.4.3-.5 3.3-7.9 6.6-16.4 3.4-8.5 6.6-16.4 7.1-17.5.5-1.1 10.6-26.3 22.5-56s22-54.9 22.5-56c.9-2 17.9-44.7 18.5-46.5.4-1.1 2.6-6.6 3.5-8.8 2.2-4.9 3.2-7.4 10-24.7 3.9-9.9 7.7-19.4 8.4-21 .7-1.7 3.9-9.5 7.1-17.5 6.5-16.6 6.8-17.3 8.8-22 .8-1.9 5-12.3 9.2-23 4.3-10.7 8.3-20.9 9-22.5.7-1.7 5.5-13.4 10.5-26 5-12.7 9.8-24.3 10.6-25.9.8-1.6 1.4-3.3 1.4-3.9 0-.5.7-2.3 1.5-4 3.9-8.5 14.5-35.9 15.1-39.3 1-5.1 1-6.1.2-11.3-1.2-6.6-2.7-9.5-29.8-56.7-6.3-11-28.2-45.1-32.5-50.5-1.1-1.5-2.9-3.9-4-5.5-7-9.9-26.3-32.5-33.9-39.9-2.3-2.2-8.2-7.6-13.1-12s-10.1-9.2-11.7-10.8c-1.6-1.5-3.2-2.7-3.6-2.7-.4 0-1.6 2-2.6 4.3zM1529 430.5c0 .5.5 1.7 1 2.5s1 1 1 .5c0-.6-.5-1.7-1-2.5s-1-1.1-1-.5zM94 433c-.6 1.1-.8 2-.6 2 .3 0 1-.9 1.6-2 .6-1.1.8-2 .6-2-.3 0-1 .9-1.6 2zM272.4 443.7c-19.3 33.6-19.8 39.6-4.2 56.7 16 17.4 34.3 47.9 48.9 81.5 2.3 5.3 5 11.4 6 13.6 3.1 6.8 9 21.5 12.7 31.5 1.9 5.2 4.1 11.3 5 13.5 3.7 10.1 10.2 37 12.7 53.4 2.7 17.1 3.9 63.4 2.1 79.6-1.9 16.5-2.1 17.9-5.9 30-3.7 12-12.1 22.9-22.4 29-2.2 1.4-8.3 3.9-13.5 5.6-8.9 3-9.8 3.1-21.3 2.7-12.8-.6-23.9-3.4-33.5-8.6-27-14.7-46.5-38.6-58.5-71.5-3.2-9-8.8-29-10-35.9-1.5-8.6-3.7-16.8-4.5-16.3-.4.2-1 1.5-1.3 2.7-.3 1.3-2.6 8.1-5.2 15.3-12.2 33.8-22.9 74.6-28.9 110-2.6 15.8-3.7 22.7-4.1 26-2.1 16.8-2.5 21.6-2 22.5.3.5.3 1-.2 1-.4 0-.8 1-.9 2.2-.1 4.6-1.5 23.4-2 28.3-.7 6.1-.6 61.6 0 70 .3 3.3.8 10.7 1.2 16.5.3 5.8.8 11.2.9 12 .2.8.6 4.4.9 8 .7 6.9 3.2 26.1 4.1 32 .7 3.9 2.2 13 3 17.5.4 2.6 5.9 28.8 7 33.6.2.9 2.1 8.6 4.3 17 19.7 75.3 53.5 148.7 98.1 212.7 12.9 18.6 19.3 27.1 26.6 35.9.5.7 1.5 1.8 2 2.5 16.1 20.8 48.7 55.4 71.9 76.3 4.9 4.4 9.4 8.5 10 9 5.4 5 27.1 22.5 40.1 32.3 44 33.2 104.2 66.9 153.5 85.8 3.6 1.4 8.3 3.3 10.4 4.2 3.5 1.5 9 1.7 42.5 1.8 21.2.1 39.4-.1 40.4-.3 1.6-.4 1.5-.8-1-4.1-6.2-8.4-9-9.8-33.3-17.2-65.5-19.9-132.4-53.8-189.6-96.1-8.7-6.4-33.5-26-36-28.4-.6-.5-4.4-3.9-8.5-7.5-13.3-11.6-47.2-46.2-59.5-60.5-25.1-29.4-44.9-56.9-65.8-91.3-3.1-5.1-5.6-9.5-5.6-9.8 0-.2-1.1-2.1-2.3-4.2-7.2-11.3-25.5-49.4-34.1-70.7-2-5-4.1-9.9-4.6-11-4.4-9.6-17.6-51-23.1-72.5-3.9-15.2-10.1-44.6-11.4-54-.2-1.4-1.1-7.5-1.9-13.5-2.4-16.1-3.2-23.5-4.1-35-.3-3.9-.9-9-1.2-11.5-.9-6.2-.8-79.6 0-89.5.4-4.4.9-10 1.2-12.5.3-2.5.8-7 1-10 .5-6 1.4-13 3-24 .8-5.2 4.6-27.8 5.8-34l1.2-6.5 13.5 13.6c17.2 17.2 23.2 22.6 31.7 28 3.8 2.4 7.8 5 8.8 5.7 1.1.6 2.7 1.5 3.5 1.8.8.3 2.4 1 3.5 1.4 14.3 6.2 40.3 9 62.7 6.9 24.6-2.3 42.6-12.1 56.2-30.4 12.6-17 19.5-37.1 21.3-61.8 1.4-18.9.5-91.6-1.2-97.7-.2-.8-.7-3.5-1-6-1.4-10.4-4.8-21.7-11.3-38-4.3-10.9-36.6-83.1-51.7-115.5-2.1-4.4-5.7-12.3-8-17.5-2.4-5.2-6.2-13.6-8.5-18.5-2.3-5-5.1-11-6.2-13.5-7.8-17.2-21.7-46-22.2-46-.2 0-3.5 5.3-7.2 11.7zM90.6 439.7c-.6 1.4-.5 1.5.5.6.7-.7 1-1.5.7-1.8-.3-.3-.9.2-1.2 1.2zM1533 438.9c0 .5.5 1.3 1 1.6.6.3 1 .2 1-.4 0-.5-.4-1.3-1-1.6-.5-.3-1-.2-1 .4zM88.5 443.1c-.4.6-.5 1.2-.2 1.5.2.3.7-.2 1-1.1.7-1.7.1-2-.8-.4zM1537.1 446.8c.6 1.8 1.5 3.5 2 3.8.5.3.4-.7-.3-2.3-1.7-4.1-3-5.3-1.7-1.5zM86.5 447.1c-.4.6-.5 1.2-.2 1.5.2.3.7-.2 1-1.1.7-1.7.1-2-.8-.4zM84.5 451.1c-.4.6-.5 1.2-.2 1.5.2.3.7-.2 1-1.1.7-1.7.1-2-.8-.4zM1540.7 454c.3 1.1.9 2.2 1.3 2.5.5.3.6-.4.3-1.5s-.9-2.2-1.3-2.5c-.5-.3-.6.4-.3 1.5zM82.6 455.7c-.6 1.4-.5 1.5.5.6.7-.7 1-1.5.7-1.8-.3-.3-.9.2-1.2 1.2zM80.6 459.7c-.6 1.4-.5 1.5.5.6.7-.7 1-1.5.7-1.8-.3-.3-.9.2-1.2 1.2zM1543.6 459.3c.3 1 .9 1.5 1.2 1.2.3-.3 0-1.1-.7-1.8-1-.9-1.1-.8-.5.6zM78.1 464.7c-1 2.6-1 2.7.4.9.8-1.1 1.5-2.3 1.5-2.8 0-1.5-.7-.8-1.9 1.9zM1545 462.9c0 .6.4 1.3 1 1.6.6.3.7-.1.4-.9-.7-1.8-1.4-2.1-1.4-.7zM75.6 469.9c-1.1 1.7-2.7 6.6-1.9 5.6 1.2-1.3 3.4-6.5 2.8-6.5-.2 0-.6.4-.9.9zM1548.6 470.3c.3 1 .9 1.5 1.2 1.2.3-.3 0-1.1-.7-1.8-1-.9-1.1-.8-.5.6zM1550 473.6c0 .6.7 1.9 1.6 3 1.4 1.8 1.4 1.8.3-.6-1.4-3.1-1.9-3.6-1.9-2.4zM71.2 479.5c-1.7 3.7-1.4 4.5.4 1.2.9-1.6 1.4-3.1 1.1-3.3-.2-.2-.9.7-1.5 2.1zM1553 479.5c0 .5.5 1.7 1 2.5s1 1 1 .5c0-.6-.5-1.7-1-2.5s-1-1.1-1-.5zM67.6 487.5c-.9 2.6-.7 3.2.5 1.2.6-1 .9-2.1.6-2.3-.2-.3-.7.2-1.1 1.1zM1556 486.9c0 .6.4 1.3 1 1.6.6.3.7-.1.4-.9-.7-1.8-1.4-2.1-1.4-.7zM1558.1 491.6c0 1.1.3 1.4.6.6.3-.7.2-1.6-.1-1.9-.3-.4-.6.2-.5 1.3zM64.6 494.5c-.9 2.6-.7 3.2.5 1.2.6-1 .9-2.1.6-2.3-.2-.3-.7.2-1.1 1.1zM1559.6 495.3c.3 1 .9 1.5 1.2 1.2.3-.3 0-1.1-.7-1.8-1-.9-1.1-.8-.5.6zM62.1 500.7c-1 2.6-1 2.7.4.9.8-1.1 1.5-2.3 1.5-2.8 0-1.5-.7-.8-1.9 1.9zM1561 498.5c0 .5.5 1.7 1 2.5s1 1 1 .5c0-.6-.5-1.7-1-2.5s-1-1.1-1-.5zM59.2 507.9c-.6 1.7-.9 3.1-.6 3.1.7 0 2.5-5.2 2-5.7-.2-.2-.8 1-1.4 2.6zM1564 505.5c0 .5.5 1.7 1 2.5s1 1 1 .5c0-.6-.5-1.7-1-2.5s-1-1.1-1-.5zM1566 510.5c0 .5.5 1.7 1 2.5s1 1 1 .5c0-.6-.5-1.7-1-2.5s-1-1.1-1-.5zM56.5 514.1c-.4.6-.5 1.2-.2 1.5.2.3.7-.2 1-1.1.7-1.7.1-2-.8-.4zM55.1 517.7c-.1.6-.4 2-.7 3-.5 1.7-.5 1.7.6 0 .6-1 .9-2.3.6-3-.3-.9-.5-.9-.5 0zM1569.7 520.1c.4 1.3.8 1.8 1.1 1 .2-.7-.1-1.8-.6-2.3-.8-.8-.9-.4-.5 1.3zM52.6 524.5c-.9 2.6-.7 3.2.5 1.2.6-1 .9-2.1.6-2.3-.2-.3-.7.2-1.1 1.1zM1571 523.5c0 .5.5 1.7 1 2.5s1 1 1 .5c0-.6-.5-1.7-1-2.5s-1-1.1-1-.5zM50.6 529.5c-.3.9-.6 2.2-.5 2.8 0 .7.5.1 1-1.2s.8-2.6.5-2.8c-.2-.2-.6.3-1 1.2zM1573 528.5c0 .5.5 1.7 1 2.5s1 1 1 .5c0-.6-.5-1.7-1-2.5s-1-1.1-1-.5zM48.3 535.5c-.3.9-.3 1.8-.1 2.1.3.3.8-.4 1.1-1.6.6-2.3-.1-2.7-1-.5zM46.6 540.7c-.6 1.4-.5 1.5.5.6.7-.7 1-1.5.7-1.8-.3-.3-.9.2-1.2 1.2zM1578.1 542c0 .8.4 2.2.9 3 1.2 1.8 1.2.2 0-2.5-.6-1.3-.9-1.5-.9-.5zM45.5 544.1c-.4.6-.5 1.2-.2 1.5.2.3.7-.2 1-1.1.7-1.7.1-2-.8-.4zM44.1 548.6c0 1.1.3 1.4.6.6.3-.7.2-1.6-.1-1.9-.3-.4-.6.2-.5 1.3zM1580.1 548.6c0 1.1.3 1.4.6.6.3-.7.2-1.6-.1-1.9-.3-.4-.6.2-.5 1.3zM42.3 552.5c-.3.9-.3 1.8-.1 2.1.3.3.8-.4 1.1-1.6.6-2.3-.1-2.7-1-.5zM1581 551.5c0 .5.5 1.7 1 2.5s1 1 1 .5c0-.6-.5-1.7-1-2.5s-1-1.1-1-.5zM40.6 557.7c-.6 1.4-.5 1.5.5.6.7-.7 1-1.5.7-1.8-.3-.3-.9.2-1.2 1.2zM1585 563.4c0 .8.4 1.7.9 2 .5.4.7-.3.4-1.4-.6-2.3-1.3-2.6-1.3-.6zM38.6 564.7c-.6 1.4-.5 1.5.5.6.7-.7 1-1.5.7-1.8-.3-.3-.9.2-1.2 1.2zM1587 569.5c0 .5.5 1.7 1 2.5s1 1 1 .5c0-.6-.5-1.7-1-2.5s-1-1.1-1-.5zM36.5 571.1c-.4.6-.5 1.2-.2 1.5.2.3.7-.2 1-1.1.7-1.7.1-2-.8-.4zM35.1 575.6c0 1.1.3 1.4.6.6.3-.7.2-1.6-.1-1.9-.3-.4-.6.2-.5 1.3zM34.1 579.6c0 1.1.3 1.4.6.6.3-.7.2-1.6-.1-1.9-.3-.4-.6.2-.5 1.3zM1374 622.5c-.1 46.7-.3 48.8-7.3 62.9-7.1 14.2-17.8 24.3-30.3 28.6-13.7 4.7-37.8 7.3-50.9 5.5-9.6-1.4-20.8-6-40.3-16.8-5.6-3.1-10.6-5.7-11.1-5.7-1.1 0-7.9 20.3-8.6 26.1-1.3 9.4 3.3 14.1 21.6 22.1 18.1 7.8 31.3 9.9 57.4 9.3 18.1-.5 21.4-.8 34-3.7 24.8-5.6 39.6-15.6 53.1-35.9 3.5-5.3 6.6-10.4 7-11.3.3-.9.9-1.6 1.3-1.6.3 0 2.1 3.9 4 8.8 1.9 4.8 4.3 10.5 5.2 12.7 4.3 9.7 13.8 38.2 19.8 59 4.9 17.2 12.9 52.6 14.6 64.5.3 2.5.8 5.2 1 6 .2.8.7 3.7 1 6.5.4 2.7 1.1 7.7 1.6 11 1 7.4 1.6 12.3 2.4 22.3.4 4.2.8 8.4 1 9.2 1.6 6.7 2.5 72.1 1.2 88.5-.3 3.8-.9 10.9-1.2 15.7-.3 4.8-.7 9.5-.9 10.5-.2 1-.7 4.9-1 8.8-.4 3.8-1.1 9.7-1.6 13-.5 3.3-1.2 8.2-1.5 11-.4 2.7-2 12-3.6 20.5-3.8 20-3.7 19.8-4.4 22-.3 1-.8 3.1-1 4.6-.6 4.1-8.6 33.8-12.9 47.4-12.7 41.4-30.5 82.1-54.2 124.8-16.4 29.4-48.9 75.6-69.4 98.7-1.5 1.6-4.9 5.5-7.6 8.5-16.4 18.5-39.7 41.5-56.4 56-4.1 3.5-7.7 6.7-8 7.1-3 3.7-45.2 35.1-62 46.1-11.8 7.7-23 14.8-23.4 14.8-.2 0-4.3 2.3-9.2 5.2-12.8 7.4-39.1 20.9-52.4 26.8-6.3 2.7-12.8 5.6-14.5 6.4-6.1 2.7-8.3 3.6-20 8.2-6.6 2.5-20.1 7.3-30 10.5-9.8 3.3-18.7 6.7-19.7 7.5-1.4 1.3-5 9.1-8.4 17.7-.3.9 7 1.2 29.8 1.1l30.3-.1 9.5-3.7c50.3-19.7 99.2-45.5 140-73.9 10.7-7.5 31.9-23.1 36.5-26.9 1.1-1 6.7-5.6 12.4-10.3 5.7-4.7 11.7-9.8 13.5-11.4 1.7-1.6 5.8-5.3 9.1-8.2 6.8-6.1 33.5-32.6 41.1-40.9 7-7.6 23.2-26.5 27.9-32.5 2.2-2.8 4.3-5.2 4.6-5.5 1-.9 18.4-24.5 25.2-34.2 12.2-17.6 28.1-43.5 38.9-63.3 6.8-12.6 24.8-49.7 24.8-51.1 0-.2 1-2.7 2.3-5.6 1.3-2.9 3.2-7.3 4.1-9.8 1-2.5 2.2-5.4 2.7-6.5 4.6-10.7 15.9-44 20.5-60.5 9.4-33.2 17.3-71.9 20.8-102 3.6-30.7 5-52.5 5-81 0-16.2-1-45.9-1.8-54-.2-1.9-.7-6.9-1.1-11-6.3-69.9-26.5-146-56.3-212-6.9-15.4-21.2-43.5-28.2-55.5-2.9-5-6.1-10.5-7.2-12.4-2-3.5-15-24.1-17.4-27.6-1.2-1.7-1.4 4-1.4 39zM1591.6 584.3c.3 1 .9 1.5 1.2 1.2.3-.3 0-1.1-.7-1.8-1-.9-1.1-.8-.5.6zM1592.7 589.1c.4 1.3.8 1.8 1.1 1 .2-.7-.1-1.8-.6-2.3-.8-.8-.9-.4-.5 1.3zM30.1 593.6c0 1.1.3 1.4.6.6.3-.7.2-1.6-.1-1.9-.3-.4-.6.2-.5 1.3zM1594.1 593.6c0 1.1.3 1.4.6.6.3-.7.2-1.6-.1-1.9-.3-.4-.6.2-.5 1.3zM28.6 598.5c-.3.9-.6 2.2-.5 2.8 0 .7.5.1 1-1.2s.8-2.6.5-2.8c-.2-.2-.6.3-1 1.2zM26.7 604.9c-.4 1.7-.3 2.1.5 1.3.5-.5.8-1.6.6-2.3-.3-.8-.7-.3-1.1 1zM1597.1 604c0 .8.4 2.4.9 3.5.5 1.3.9 1.4.9.5 0-.8-.4-2.4-.9-3.5-.5-1.3-.9-1.4-.9-.5zM1599.1 611.6c0 1.1.3 1.4.6.6.3-.7.2-1.6-.1-1.9-.3-.4-.6.2-.5 1.3zM24.3 614.5c-.3.9-.3 1.8-.1 2.1.3.3.8-.4 1.1-1.6.6-2.3-.1-2.7-1-.5zM23.1 619.6c0 1.1.3 1.4.6.6.3-.7.2-1.6-.1-1.9-.3-.4-.6.2-.5 1.3zM1601.2 620c0 1.4.2 1.9.5 1.2.2-.6.2-1.8 0-2.5-.3-.6-.5-.1-.5 1.3zM22.2 624c0 1.4.2 1.9.5 1.2.2-.6.2-1.8 0-2.5-.3-.6-.5-.1-.5 1.3zM21.1 628.6c0 1.1.3 1.4.6.6.3-.7.2-1.6-.1-1.9-.3-.4-.6.2-.5 1.3zM20.1 632.6c0 1.1.3 1.4.6.6.3-.7.2-1.6-.1-1.9-.3-.4-.6.2-.5 1.3zM1604.1 632.6c0 1.1.3 1.4.6.6.3-.7.2-1.6-.1-1.9-.3-.4-.6.2-.5 1.3zM1605.2 637c0 1.4.2 1.9.5 1.2.2-.6.2-1.8 0-2.5-.3-.6-.5-.1-.5 1.3zM19.1 637.6c0 1.1.3 1.4.6.6.3-.7.2-1.6-.1-1.9-.3-.4-.6.2-.5 1.3zM16.7 646.9c-.4 1.7-.3 2.1.5 1.3.5-.5.8-1.6.6-2.3-.3-.8-.7-.3-1.1 1zM1607 647.5c0 .5.5 1.7 1 2.5s1 1 1 .5c0-.6-.5-1.7-1-2.5s-1-1.1-1-.5zM1609.2 656c0 1.4.2 1.9.5 1.2.2-.6.2-1.8 0-2.5-.3-.6-.5-.1-.5 1.3zM14.5 659.1c-.4.6-.5 1.2-.2 1.5.2.3.7-.2 1-1.1.7-1.7.1-2-.8-.4zM1610.2 661c0 1.4.2 1.9.5 1.2.2-.6.2-1.8 0-2.5-.3-.6-.5-.1-.5 1.3zM1611.1 667.6c0 1.1.3 1.4.6.6.3-.7.2-1.6-.1-1.9-.3-.4-.6.2-.5 1.3zM12.2 672c0 1.4.2 1.9.5 1.2.2-.6.2-1.8 0-2.5-.3-.6-.5-.1-.5 1.3zM1612.1 671.6c0 1.1.3 1.4.6.6.3-.7.2-1.6-.1-1.9-.3-.4-.6.2-.5 1.3zM11.1 678.7c-.1.6-.4 2-.7 3-.5 1.7-.5 1.7.6 0 .6-1 .9-2.3.6-3-.3-.9-.5-.9-.5 0zM1613.3 679.8c.2 1.2.6 2.4 1 2.8.3.4.4-.4.2-1.6-.6-3-1.6-4-1.2-1.2zM9.5 687.1c-.4.6-.5 1.2-.2 1.5.2.3.7-.2 1-1.1.7-1.7.1-2-.8-.4zM9.2 692c0 1.4.2 1.9.5 1.2.2-.6.2-1.8 0-2.5-.3-.6-.5-.1-.5 1.3zM1615.1 691.6c0 1.1.3 1.4.6.6.3-.7.2-1.6-.1-1.9-.3-.4-.6.2-.5 1.3zM1616.1 696.6c0 1.1.3 1.4.6.6.3-.7.2-1.6-.1-1.9-.3-.4-.6.2-.5 1.3zM7.6 699.7c-.6 1.4-.5 1.5.5.6.7-.7 1-1.5.7-1.8-.3-.3-.9.2-1.2 1.2zM1616 699.9c0 .6.4 1.3 1 1.6.6.3.7-.1.4-.9-.7-1.8-1.4-2.1-1.4-.7zM7.1 706.6c0 1.1.3 1.4.6.6.3-.7.2-1.6-.1-1.9-.3-.4-.6.2-.5 1.3zM1617 706.9c0 .6.4 1.3 1 1.6.6.3.7-.1.4-.9-.7-1.8-1.4-2.1-1.4-.7zM1618.1 711.6c0 1.1.3 1.4.6.6.3-.7.2-1.6-.1-1.9-.3-.4-.6.2-.5 1.3zM1618.1 715.6c0 1.1.3 1.4.6.6.3-.7.2-1.6-.1-1.9-.3-.4-.6.2-.5 1.3zM5.3 721.5c0 2.2.2 3 .4 1.7.2-1.2.2-3 0-4-.3-.9-.5.1-.4 2.3zM1619.1 720.6c0 1.1.3 1.4.6.6.3-.7.2-1.6-.1-1.9-.3-.4-.6.2-.5 1.3zM4.1 731.6c0 1.1.3 1.4.6.6.3-.7.2-1.6-.1-1.9-.3-.4-.6.2-.5 1.3zM1620 732.4c0 .8.4 1.7.9 2 .5.4.7-.3.4-1.4-.6-2.3-1.3-2.6-1.3-.6zM1621.2 739c0 1.4.2 1.9.5 1.2.2-.6.2-1.8 0-2.5-.3-.6-.5-.1-.5 1.3zM3.2 743c0 1.4.2 1.9.5 1.2.2-.6.2-1.8 0-2.5-.3-.6-.5-.1-.5 1.3zM1621.1 743.6c0 1.1.3 1.4.6.6.3-.7.2-1.6-.1-1.9-.3-.4-.6.2-.5 1.3zM1621.7 747.7c-.3.5-.1 1.7.4 2.8.6 1.7.7 1.6.6-.8-.1-2.8-.3-3.2-1-2zM1622.2 755c0 1.4.2 1.9.5 1.2.2-.6.2-1.8 0-2.5-.3-.6-.5-.1-.5 1.3zM1.5 761.1c-.4.6-.5 1.2-.2 1.5.2.3.7-.2 1-1.1.7-1.7.1-2-.8-.4zM1.1 766.6c0 1.1.3 1.4.6.6.3-.7.2-1.6-.1-1.9-.3-.4-.6.2-.5 1.3zM1623.1 767.6c0 1.1.3 1.4.6.6.3-.7.2-1.6-.1-1.9-.3-.4-.6.2-.5 1.3zM1.2 771c0 1.4.2 1.9.5 1.2.2-.6.2-1.8 0-2.5-.3-.6-.5-.1-.5 1.3zM1623.1 771.6c0 1.1.3 1.4.6.6.3-.7.2-1.6-.1-1.9-.3-.4-.6.2-.5 1.3zM1.1 775.6c0 1.1.3 1.4.6.6.3-.7.2-1.6-.1-1.9-.3-.4-.6.2-.5 1.3zM1624.2 792c0 1.4.2 1.9.5 1.2.2-.6.2-1.8 0-2.5-.3-.6-.5-.1-.5 1.3zM1624.1 807.6c0 1.1.3 1.4.6.6.3-.7.2-1.6-.1-1.9-.3-.4-.6.2-.5 1.3zM1624.2 831.5c0 1.6.2 2.2.5 1.2.2-.9.2-2.3 0-3-.3-.6-.5.1-.5 1.8z"/><path d="M1175.3 843.2c-1.9 4.1-5.1 11.8-24.9 59.8-10.8 26.1-21.4 51.8-23.6 57-2.2 5.2-4.6 11.3-5.4 13.5-.8 2.2-2.1 5.3-2.8 7-.8 1.6-6.2 14.7-12.2 29-5.9 14.3-14.7 35.7-19.6 47.5-4.9 11.8-10.3 24.9-12 29-1.7 4.1-3.7 8.8-4.4 10.5-4.9 11.7-18 43.5-27.9 67.5-6.4 15.7-12.3 29.8-13 31.5-1.5 3.3-41.6 100.1-63.7 154-7.7 18.7-14.8 35.8-15.8 38-1 2.2-4.8 11.4-8.5 20.5-3.6 9.1-7.3 17.8-8 19.3-1.5 3-1.5 3.1 4 4.1 1.7.3 5.3 1.1 8 1.7 2.8.5 5.9 1.2 7 1.4 1.1.3 7.6 1.6 14.5 3.1 6.9 1.4 13.7 2.8 15.1 3 4.9.9 40.7-13.5 67.9-27.1 59.6-29.8 109.2-68.2 157.2-121.6 4-4.4 6.1-6.9 11.3-13.4 2.1-2.8 4.2-5.2 4.5-5.5 5-4.6 33.7-46.8 42.5-62.5 17.1-30.4 27.4-52.5 37.5-80 10.8-29.6 21.9-70.8 24.4-91 .2-1.6.9-5.7 1.5-9 1.5-9.1 2.1-13.4 2.7-19.6.2-3 .6-6.6.9-7.8 2.6-13.8 2.7-86.6 0-103.4-.2-1.2-.6-5.4-1-9.2-.7-8.2-3-16.8-4.7-18.2-2.7-2.1-10-3-25.8-3.2-63.4-.9-80.6-4.1-110-20.7-6.8-3.9-13.6-7.4-14.3-7.4-.2 0-.8 1-1.4 2.2zM1.2 855c0 1.4.2 1.9.5 1.2.2-.6.2-1.8 0-2.5-.3-.6-.5-.1-.5 1.3zM1623.1 855.6c0 1.1.3 1.4.6.6.3-.7.2-1.6-.1-1.9-.3-.4-.6.2-.5 1.3zM1.2 860c0 1.4.2 1.9.5 1.2.2-.6.2-1.8 0-2.5-.3-.6-.5-.1-.5 1.3zM2.2 868.5c0 1.6.2 2.2.5 1.2.2-.9.2-2.3 0-3-.3-.6-.5.1-.5 1.8zM1622.1 868.6c0 1.1.3 1.4.6.6.3-.7.2-1.6-.1-1.9-.3-.4-.6.2-.5 1.3zM1622.2 873c0 1.4.2 1.9.5 1.2.2-.6.2-1.8 0-2.5-.3-.6-.5-.1-.5 1.3zM3.2 883c0 1.4.2 1.9.5 1.2.2-.6.2-1.8 0-2.5-.3-.6-.5-.1-.5 1.3zM1621.1 882.6c0 1.1.3 1.4.6.6.3-.7.2-1.6-.1-1.9-.3-.4-.6.2-.5 1.3zM1620.6 888.7c-.6 1.4-.5 1.5.5.6.7-.7 1-1.5.7-1.8-.3-.3-.9.2-1.2 1.2zM478.9 895.3c-10.8 18.3-32.5 42.5-50.7 56.5-28.4 21.8-61.6 36.4-90.2 39.7-3 .4-6.6.8-8 1-10.5 1.6-21.4 2.8-26.4 2.9-5.5.2-6 .4-6.6 2.7-1.2 4.3-.2 14.4 3.6 37.4.8 4.9 1.7 10.3 2 12 2.2 13.3 9.3 41.1 15.5 60.5 6.1 19.2 8.7 25.8 18.9 50 11.4 26.8 26.7 54.7 44.3 80.9 4.9 7.4 9.3 13.9 9.8 14.5.5.6 4.1 5.4 8 10.6 24.6 32.8 56.4 65.4 89.9 92.1 10.5 8.4 18 13.9 19 13.9.5 0 1 .4 1 .9 0 1.3 31.2 21.6 47 30.5 11.8 6.7 45.1 23.6 46.5 23.6.3 0 2.4.8 4.8 1.9 2.3 1 6.2 2.8 8.7 3.9 7 3 26.8 10.2 32.3 11.6 3.9 1 6.2 1 11.6 0 3.6-.7 9.1-1.5 12.1-1.9 17.5-2 22.3-2.5 29.5-2.9 9.5-.7 12.8-2.6 13.3-7.6.4-3.3-3-14.1-7.4-23.7-1.2-2.8-8.2-18.8-15.4-35.5-7.2-16.7-13.7-31.7-14.5-33.3-.7-1.7-8.2-18.8-16.5-38-8.4-19.3-19.6-45.1-25-57.5-5.4-12.4-15.7-36.2-23-53-7.3-16.8-14-32.3-15-34.5-1-2.2-7.5-17.3-14.5-33.5s-13.8-31.8-15-34.5c-1.3-2.8-3.5-7.8-4.9-11.2-1.4-3.5-3.7-8.6-5-11.5-1.3-2.9-5.1-11.6-8.4-19.3-6.4-15-15.3-35.5-18.2-42-1-2.2-3.7-8.5-6-13.9-2.3-5.5-5.2-12.2-6.5-15-1.3-2.8-7.4-16.8-13.6-31.1-6.1-14.3-12-27.8-12.9-30-1-2.2-2.9-6.5-4.1-9.4-1.3-3-3.3-7.4-4.4-9.8l-2-4.3-3.6 6.3zM4.1 892.6c0 1.1.3 1.4.6.6.3-.7.2-1.6-.1-1.9-.3-.4-.6.2-.5 1.3zM1620.2 893c0 1.4.2 1.9.5 1.2.2-.6.2-1.8 0-2.5-.3-.6-.5-.1-.5 1.3zM5.2 904c0 1.4.2 1.9.5 1.2.2-.6.2-1.8 0-2.5-.3-.6-.5-.1-.5 1.3zM1618.7 907.9c-.4 1.7-.3 2.1.5 1.3.5-.5.8-1.6.6-2.3-.3-.8-.7-.3-1.1 1zM5 907.9c0 .6.4 1.3 1 1.6.6.3.7-.1.4-.9-.7-1.8-1.4-2.1-1.4-.7zM1618.2 913c0 1.4.2 1.9.5 1.2.2-.6.2-1.8 0-2.5-.3-.6-.5-.1-.5 1.3zM1617.2 921c0 1.9.2 2.7.5 1.7.2-.9.2-2.5 0-3.5-.3-.9-.5-.1-.5 1.8zM7.1 920.6c0 1.1.3 1.4.6.6.3-.7.2-1.6-.1-1.9-.3-.4-.6.2-.5 1.3zM7.6 924.3c.3 1 .9 1.5 1.2 1.2.3-.3 0-1.1-.7-1.8-1-.9-1.1-.8-.5.6zM8.2 929c0 1.4.2 1.9.5 1.2.2-.6.2-1.8 0-2.5-.3-.6-.5-.1-.5 1.3zM1615.1 934.6c0 1.1.3 1.4.6.6.3-.7.2-1.6-.1-1.9-.3-.4-.6.2-.5 1.3zM9.1 935.6c0 1.1.3 1.4.6.6.3-.7.2-1.6-.1-1.9-.3-.4-.6.2-.5 1.3zM10.2 940.5c0 1.6.2 2.2.5 1.2.2-.9.2-2.3 0-3-.3-.6-.5.1-.5 1.8zM1614.1 941.6c0 1.1.3 1.4.6.6.3-.7.2-1.6-.1-1.9-.3-.4-.6.2-.5 1.3zM11.2 947c0 1.4.2 1.9.5 1.2.2-.6.2-1.8 0-2.5-.3-.6-.5-.1-.5 1.3zM1613.2 947.5c0 1.6.2 2.2.5 1.2.2-.9.2-2.3 0-3-.3-.6-.5.1-.5 1.8zM12.1 952.6c0 1.1.3 1.4.6.6.3-.7.2-1.6-.1-1.9-.3-.4-.6.2-.5 1.3zM1612.1 952.6c0 1.1.3 1.4.6.6.3-.7.2-1.6-.1-1.9-.3-.4-.6.2-.5 1.3zM13.2 959c0 1.4.2 1.9.5 1.2.2-.6.2-1.8 0-2.5-.3-.6-.5-.1-.5 1.3zM1611.2 959c0 1.4.2 1.9.5 1.2.2-.6.2-1.8 0-2.5-.3-.6-.5-.1-.5 1.3zM14.1 963.6c0 1.1.3 1.4.6.6.3-.7.2-1.6-.1-1.9-.3-.4-.6.2-.5 1.3zM1610.2 964c0 1.4.2 1.9.5 1.2.2-.6.2-1.8 0-2.5-.3-.6-.5-.1-.5 1.3zM14.6 967.3c.3 1 .9 1.5 1.2 1.2.3-.3 0-1.1-.7-1.8-1-.9-1.1-.8-.5.6zM1609.2 969c0 1.4.2 1.9.5 1.2.2-.6.2-1.8 0-2.5-.3-.6-.5-.1-.5 1.3zM1608.1 973.6c0 1.1.3 1.4.6.6.3-.7.2-1.6-.1-1.9-.3-.4-.6.2-.5 1.3zM17 979.4c0 .8.4 1.7.9 2 .5.4.7-.3.4-1.4-.6-2.3-1.3-2.6-1.3-.6zM1606.6 980.7c-.6 1.4-.5 1.5.5.6.7-.7 1-1.5.7-1.8-.3-.3-.9.2-1.2 1.2zM19.2 988c0 1.4.2 1.9.5 1.2.2-.6.2-1.8 0-2.5-.3-.6-.5-.1-.5 1.3zM1605.1 987.6c0 1.1.3 1.4.6.6.3-.7.2-1.6-.1-1.9-.3-.4-.6.2-.5 1.3zM1604.2 992c0 1.4.2 1.9.5 1.2.2-.6.2-1.8 0-2.5-.3-.6-.5-.1-.5 1.3zM21.1 997.6c.6 2.1 1.3 4.1 1.6 4.4.9.9-.9-6.5-1.8-7.4-.4-.5-.3.8.2 3zM1603.1 997.6c0 1.1.3 1.4.6.6.3-.7.2-1.6-.1-1.9-.3-.4-.6.2-.5 1.3zM1601.1 1004.6c0 1.1.3 1.4.6.6.3-.7.2-1.6-.1-1.9-.3-.4-.6.2-.5 1.3zM24.1 1009.6c0 1.1.3 1.4.6.6.3-.7.2-1.6-.1-1.9-.3-.4-.6.2-.5 1.3zM25.1 1013.6c0 1.1.3 1.4.6.6.3-.7.2-1.6-.1-1.9-.3-.4-.6.2-.5 1.3zM1599.1 1013.6c0 1.1.3 1.4.6.6.3-.7.2-1.6-.1-1.9-.3-.4-.6.2-.5 1.3zM26.1 1017.6c0 1.1.3 1.4.6.6.3-.7.2-1.6-.1-1.9-.3-.4-.6.2-.5 1.3zM1596.7 1020.9c-.4 1.7-.3 2.1.5 1.3.5-.5.8-1.6.6-2.3-.3-.8-.7-.3-1.1 1zM27.6 1023.3c.3 1 .9 1.5 1.2 1.2.3-.3 0-1.1-.7-1.8-1-.9-1.1-.8-.5.6zM29.1 1028c0 .8.4 2.4.9 3.5.5 1.3.9 1.4.9.5 0-.8-.4-2.4-.9-3.5-.5-1.3-.9-1.4-.9-.5zM1594.7 1028.9c-.4 1.7-.3 2.1.5 1.3.5-.5.8-1.6.6-2.3-.3-.8-.7-.3-1.1 1zM31.1 1035.6c0 1.1.3 1.4.6.6.3-.7.2-1.6-.1-1.9-.3-.4-.6.2-.5 1.3zM1592.1 1038.6c0 1.1.3 1.4.6.6.3-.7.2-1.6-.1-1.9-.3-.4-.6.2-.5 1.3zM32 1038.9c0 .6.4 1.3 1 1.6.6.3.7-.1.4-.9-.7-1.8-1.4-2.1-1.4-.7zM33.1 1042.5c.1 1.9 1.8 5.1 1.8 3.5 0-.8-.4-2.2-.9-3-.5-.8-.9-1.1-.9-.5zM1589.1 1048.6c0 1.1.3 1.4.6.6.3-.7.2-1.6-.1-1.9-.3-.4-.6.2-.5 1.3zM1588.1 1052.6c0 1.1.3 1.4.6.6.3-.7.2-1.6-.1-1.9-.3-.4-.6.2-.5 1.3zM37.1 1055.6c0 1.1.3 1.4.6.6.3-.7.2-1.6-.1-1.9-.3-.4-.6.2-.5 1.3zM1586.6 1056.7c-.6 1.4-.5 1.5.5.6.7-.7 1-1.5.7-1.8-.3-.3-.9.2-1.2 1.2zM39.1 1061.5c.1 1.9 1.8 5.1 1.8 3.5 0-.8-.4-2.2-.9-3-.5-.8-.9-1.1-.9-.5zM1584.6 1062.5c-.3.9-.6 2.2-.5 2.8 0 .7.5.1 1-1.2s.8-2.6.5-2.8c-.2-.2-.6.3-1 1.2zM41 1067.9c0 .6.4 1.3 1 1.6.6.3.7-.1.4-.9-.7-1.8-1.4-2.1-1.4-.7zM1582.6 1068.7c-.6 1.4-.5 1.5.5.6.7-.7 1-1.5.7-1.8-.3-.3-.9.2-1.2 1.2zM43 1073.5c0 .5.5 1.7 1 2.5s1 1 1 .5c0-.6-.5-1.7-1-2.5s-1-1.1-1-.5zM1580.6 1074.5c-.9 2.6-.7 3.2.5 1.2.6-1 .9-2.1.6-2.3-.2-.3-.7.2-1.1 1.1zM45.1 1079c0 .8.4 2.2.9 3 1.2 1.8 1.2.2 0-2.5-.6-1.3-.9-1.5-.9-.5zM1577.1 1084.6c-.6 2.1-.9 4-.6 4.2.2.2.8-1.3 1.4-3.4.6-2.1.9-4 .6-4.2-.2-.2-.8 1.3-1.4 3.4zM49 1090.5c0 .5.5 1.7 1 2.5s1 1 1 .5c0-.6-.5-1.7-1-2.5s-1-1.1-1-.5zM1573.1 1095.7c-.1.6-.4 2-.7 3-.5 1.7-.5 1.7.6 0 .6-1 .9-2.3.6-3-.3-.9-.5-.9-.5 0zM53 1101.6c0 .6.7 1.9 1.6 3 1.4 1.8 1.4 1.8.3-.6-1.4-3.1-1.9-3.6-1.9-2.4zM1570.6 1102.5c-.9 2.6-.7 3.2.5 1.2.6-1 .9-2.1.6-2.3-.2-.3-.7.2-1.1 1.1zM1568.6 1107.5c-.9 2.6-.7 3.2.5 1.2.6-1 .9-2.1.6-2.3-.2-.3-.7.2-1.1 1.1zM55.6 1108.3c.3 1 .9 1.5 1.2 1.2.3-.3 0-1.1-.7-1.8-1-.9-1.1-.8-.5.6zM1566.6 1112.5c-.9 2.6-.7 3.2.5 1.2.6-1 .9-2.1.6-2.3-.2-.3-.7.2-1.1 1.1zM58 1113.6c0 .7.9 3.1 2 5.5s2 3.9 2 3.3c0-.7-.9-3.1-2-5.5s-2-3.9-2-3.3zM1564.6 1117.5c-.9 2.6-.7 3.2.5 1.2.6-1 .9-2.1.6-2.3-.2-.3-.7.2-1.1 1.1zM1562.6 1122.5c-.9 2.6-.7 3.2.5 1.2.6-1 .9-2.1.6-2.3-.2-.3-.7.2-1.1 1.1zM62.6 1125.3c.3 1 .9 1.5 1.2 1.2.3-.3 0-1.1-.7-1.8-1-.9-1.1-.8-.5.6zM1560.6 1127.7c-.6 1.4-.5 1.5.5.6.7-.7 1-1.5.7-1.8-.3-.3-.9.2-1.2 1.2zM65.6 1132.3c.3 1 .9 1.5 1.2 1.2.3-.3 0-1.1-.7-1.8-1-.9-1.1-.8-.5.6zM1558.6 1132.7c-.6 1.4-.5 1.5.5.6.7-.7 1-1.5.7-1.8-.3-.3-.9.2-1.2 1.2zM68 1138.6c0 .5.7 1.8 1.5 2.8.8 1.1 1.5 1.6 1.5 1 0-.5-.7-1.8-1.5-2.8-.8-1.1-1.5-1.6-1.5-1zM1555.5 1139.1c-.4.6-.5 1.2-.2 1.5.2.3.7-.2 1-1.1.7-1.7.1-2-.8-.4zM1553.6 1143.7c-.6 1.4-.5 1.5.5.6.7-.7 1-1.5.7-1.8-.3-.3-.9.2-1.2 1.2zM71.6 1146.3c.3 1 .9 1.5 1.2 1.2.3-.3 0-1.1-.7-1.8-1-.9-1.1-.8-.5.6zM73 1149.6c0 .5.7 1.8 1.5 2.8.8 1.1 1.5 1.6 1.5 1 0-.5-.7-1.8-1.5-2.8-.8-1.1-1.5-1.6-1.5-1zM1550.3 1150.7c-.3 1-.8 2.2-1.1 2.7-.3.5 0 .6.5.3 1.1-.7 2.5-4.7 1.7-4.7-.3 0-.7.8-1.1 1.7zM76 1155.5c0 .5.5 1.7 1 2.5s1 1 1 .5c0-.6-.5-1.7-1-2.5s-1-1.1-1-.5zM1546.5 1159.1c-.4.6-.5 1.2-.2 1.5.2.3.7-.2 1-1.1.7-1.7.1-2-.8-.4zM1544.5 1163.1c-.4.6-.5 1.2-.2 1.5.2.3.7-.2 1-1.1.7-1.7.1-2-.8-.4zM1542.5 1167.1c-.4.6-.5 1.2-.2 1.5.2.3.7-.2 1-1.1.7-1.7.1-2-.8-.4zM83 1170.9c0 .6.4 1.3 1 1.6.6.3.7-.1.4-.9-.7-1.8-1.4-2.1-1.4-.7zM1540 1172.1c-.7 1.1-1 2.3-.7 2.5.2.2.9-.7 1.5-2.1 1.4-3 .7-3.3-.8-.4zM85 1174.9c0 .6.4 1.3 1 1.6.6.3.7-.1.4-.9-.7-1.8-1.4-2.1-1.4-.7zM87 1178.9c0 .6.4 1.3 1 1.6.6.3.7-.1.4-.9-.7-1.8-1.4-2.1-1.4-.7zM1536.5 1179.1c-.4.6-.5 1.2-.2 1.5.2.3.7-.2 1-1.1.7-1.7.1-2-.8-.4zM89 1182.9c0 .6.4 1.3 1 1.6.6.3.7-.1.4-.9-.7-1.8-1.4-2.1-1.4-.7zM1534.5 1183.1c-.4.6-.5 1.2-.2 1.5.2.3.7-.2 1-1.1.7-1.7.1-2-.8-.4zM92.7 1189.5c.9 1.9 1.8 3.3 2.1 3.1.4-.5-2.6-6.6-3.3-6.6-.3 0 .3 1.6 1.2 3.5zM1532.5 1187.1c-.4.6-.5 1.2-.2 1.5.2.3.7-.2 1-1.1.7-1.7.1-2-.8-.4zM1530 1192c-.6 1.1-.8 2-.6 2 .3 0 1-.9 1.6-2 .6-1.1.8-2 .6-2-.3 0-1 .9-1.6 2zM1527 1197.8c-2.1 4.2-2.1 4.2-1.6 4.2.6 0 3.7-6.2 3.3-6.7-.2-.1-1 .9-1.7 2.5zM97 1197.1c0 .9 5.1 9.9 5.6 9.9.2 0-.5-1.7-1.5-3.8-2.4-4.4-4.1-6.9-4.1-6.1zM1523 1205c-.6 1.1-.8 2-.6 2 .3 0 1-.9 1.6-2 .6-1.1.8-2 .6-2-.3 0-1 .9-1.6 2zM105 1212c.6 1.1 1.3 2 1.6 2 .2 0 0-.9-.6-2s-1.3-2-1.6-2c-.2 0 0 .9.6 2zM1517.5 1214.6c-.9 1.4-1.5 2.7-1.3 3 .2.2 1.2-1 2.2-2.6 2.1-3.7 1.5-4-.9-.4zM109 1219c.6 1.1 1.3 2 1.6 2 .2 0 0-.9-.6-2s-1.3-2-1.6-2c-.2 0 0 .9.6 2zM111 1222.3c0 1 5.1 8.7 5.7 8.7.5 0-1.1-2.7-4.4-7.5-.7-1.1-1.3-1.6-1.3-1.2zM1510.6 1226.5c-1.3 2.5-2.1 4.3-1.5 4 1-.7 5.2-8.5 4.5-8.5-.2 0-1.6 2-3 4.5zM117 1232.5c0 .5 1 2.1 2.1 3.5 1.3 1.7 1.7 1.8 1 .5-1.7-3.3-3.1-5.1-3.1-4zM1505 1236c-.6 1.1-.8 2-.6 2 .3 0 1-.9 1.6-2 .6-1.1.8-2 .6-2-.3 0-1 .9-1.6 2zM121.9 1240.5c.5 1.1 1.7 2.9 2.6 4l1.6 2-1-2c-.5-1.1-1.7-2.9-2.6-4l-1.6-2 1 2zM1500 1244c-.6 1.1-.8 2-.6 2 .3 0 1-.9 1.6-2 .6-1.1.8-2 .6-2-.3 0-1 .9-1.6 2zM127 1249.4c0 .2.8 1 1.8 1.7 1.5 1.3 1.6 1.2.3-.4s-2.1-2.1-2.1-1.3zM130.9 1254.5c.5 1.1 1.7 2.9 2.6 4l1.6 2-1-2c-.5-1.1-1.7-2.9-2.6-4l-1.6-2 1 2zM1493 1255c-.6 1.1-.8 2-.6 2 .3 0 1-.9 1.6-2 .6-1.1.8-2 .6-2-.3 0-1 .9-1.6 2z"/><path d="M136 1262.9c.5 1.1 1.5 2.3 2.1 2.7.6.3.3-.5-.6-2-2-3-3-3.5-1.5-.7zM1487.5 1263.6c-.9 1.5-1.2 2.3-.6 2 1.1-.7 3.5-4.6 2.8-4.6-.3 0-1.2 1.2-2.2 2.6zM140.5 1269.4c1 1.4 1.9 2.6 2.2 2.6.7 0-1.7-3.9-2.8-4.6-.6-.3-.3.5.6 2zM1481.8 1271.7c-1.8 2.1-3.1 4.3-2.5 4.3.2 0 1.3-1.4 2.5-3 2.5-3.3 2.4-4.1 0-1.3zM143 1273.4c0 .2.8 1 1.8 1.7 1.5 1.3 1.6 1.2.3-.4s-2.1-2.1-2.1-1.3zM147 1278.9c.5 1.1 1.5 2.3 2.1 2.7.6.3.3-.5-.6-2-2-3-3-3.5-1.5-.7z"/><path d="M1475.8 1280.2c-2.9 3.9-4.1 5.8-3.5 5.8.2 0 1.8-2 3.6-4.5 3.7-5.1 3.6-6.2-.1-1.3zM152 1286c1.1 1.6 2.6 3.3 3.2 3.6.7.4-.1-.9-1.6-2.9-3.4-4.4-4.6-5-1.6-.7zM1469.9 1288.7c-1.3 1.6-1.2 1.7.4.4 1.6-1.3 2.1-2.1 1.3-2.1-.2 0-1 .8-1.7 1.7zM156.9 1292.8c.5 1 1.8 2.5 2.7 3.3 1.1.9.9.2-.6-1.9-2.6-3.5-3.6-4.2-2.1-1.4zM1466 1294c-1.2 1.6-1.9 3-1.6 3 .2 0 1.4-1.4 2.6-3 1.2-1.7 1.9-3 1.6-3-.2 0-1.4 1.3-2.6 3zM162.5 1300c1 1.1 2 2 2.3 2 .3 0-.3-.9-1.3-2s-2-2-2.3-2c-.3 0 .3.9 1.3 2zM1460 1302c-1.7 2.2-2.8 4-2.3 4 .8-.1 6.7-8 5.9-8-.2 0-1.9 1.8-3.6 4zM170.4 1310.3c2.1 2.6 4 4.7 4.3 4.7.7 0-5.6-7.8-7-8.7-.6-.4.6 1.4 2.7 4zM1453 1311.2c-1.9 2.4-2.6 3.7-1.7 2.9 1.9-1.5 6.1-7.1 5.4-7.1-.2 0-1.9 1.9-3.7 4.2zM175 1316.4c0 .2.8 1 1.8 1.7 1.5 1.3 1.6 1.2.3-.4s-2.1-2.1-2.1-1.3zM1440.8 1326.5c-4.8 5.8-8.4 10.5-8 10.5.9-.1 17.9-21 17-21-.2 0-4.3 4.7-9 10.5zM179.5 1322c1 1.1 2 2 2.3 2 .3 0-.3-.9-1.3-2s-2-2-2.3-2c-.3 0 .3.9 1.3 2zM186.4 1330.3c2.7 3.1 5.1 5.7 5.3 5.7.7 0-7.6-9.8-9-10.7-.7-.4 1 1.9 3.7 5zM194 1339.5c4 4.8 4.3 5.1 3.2 3-.6-1.1-2.1-2.9-3.4-4-2.2-1.9-2.2-1.9.2 1zM1429.4 1340.2l-1.9 2.3 2.3-1.9c2.1-1.8 2.7-2.6 1.9-2.6-.2 0-1.2 1-2.3 2.2zM1423.5 1347.2l-4 4.3 4.3-4c2.3-2.1 4.2-4 4.2-4.2 0-.8-.9 0-4.5 3.9zM199 1344.6c0 .6 1.5 2.3 3.3 4l3.2 2.9-3-3.5c-1.6-1.9-3.1-3.7-3.2-3.9-.2-.2-.3 0-.3.5zM209 1356.5c2.4 2.7 4.6 5.2 4.8 5.5.3.3 0-.4-.6-1.5s-2.7-3.6-4.8-5.5c-3.6-3.3-3.6-3.3.6 1.5zM1415.5 1356.2l-4 4.3 4.3-4c2.3-2.1 4.2-4 4.2-4.2 0-.8-.9 0-4.5 3.9zM1404 1368.5c-4.1 4.1-7.2 7.6-6.9 7.7.2.2 3.7-3.2 7.8-7.4 4.1-4.3 7.3-7.8 7-7.8-.2 0-3.8 3.4-7.9 7.5zM215 1362.8c0 .8 13.3 14.6 14.5 15 .7.2.7.1 0-.5-.5-.4-4-4-7.7-8-3.8-3.9-6.8-6.8-6.8-6.5zM1394.6 1378.7c-.6 1.4-.5 1.5.5.6.7-.7 1-1.5.7-1.8-.3-.3-.9.2-1.2 1.2zM230 1379.4c0 .2.8 1 1.8 1.7 1.5 1.3 1.6 1.2.3-.4s-2.1-2.1-2.1-1.3zM234 1382.9c0 .9 6.9 7.6 7.2 7 .2-.2-1.4-2-3.4-4-2.1-2.1-3.8-3.4-3.8-3zM1388.4 1384.4c-1.1 1.2-2.4 2.8-2.9 3.6-.5.8.6 0 2.5-1.7 1.8-1.8 3.2-3.4 2.9-3.6-.2-.2-1.3.6-2.5 1.7zM1382.6 1390.7c-.6 1.4-.5 1.5.5.6.7-.7 1-1.5.7-1.8-.3-.3-.9.2-1.2 1.2zM245 1393.9c0 .6.4 1.3 1 1.6.6.3.7-.1.4-.9-.7-1.8-1.4-2.1-1.4-.7zM1370.5 1402.2l-7 7.2 7-6.4c3.9-3.5 7.4-6.7 8-7.2.6-.5.6-.8 0-.8-.6.1-4.1 3.3-8 7.2zM255 1403.5c3 3 5.7 5.5 5.9 5.5.3 0-1.9-2.5-4.9-5.5-3-3-5.7-5.5-5.9-5.5-.3 0 1.9 2.5 4.9 5.5zM1357 1414.7l-5.5 5.5 5.7-4.8c3.2-2.7 5.8-5.2 5.8-5.7 0-1 0-1-6 5zM268 1415.2c2.4 2.7 4.5 4.8 4.7 4.8.8 0 0-.9-4.4-5l-4.8-4.5 4.5 4.7zM274 1420.3c0 .2 1.5 1.6 3.3 3.3l3.2 2.9-2.9-3.3c-2.8-3-3.6-3.7-3.6-2.9zM1343.5 1426.7c-6.9 6.4-6.9 6.5-.9 1.4 5.6-4.6 9.2-8.2 8.3-8.1-.2.1-3.5 3-7.4 6.7zM282.5 1427.9c2.2 2.6 11.5 10.5 11.5 9.9 0-.3-3-3.1-6.7-6.3-3.8-3.3-5.9-4.9-4.8-3.6zM1332.4 1435.9c-1.8 1.6-4 3.3-5 3.9-1.1.6-1.6 1.3-1.3 1.6.3.3 2.7-1.4 5.5-3.9 2.7-2.4 4.7-4.4 4.4-4.4-.3 0-1.9 1.2-3.6 2.8zM297 1440.5c1.3 1.4 2.6 2.5 2.8 2.5.3 0-.5-1.1-1.8-2.5s-2.6-2.5-2.8-2.5c-.3 0 .5 1.1 1.8 2.5zM1319.5 1446.6l-5 4.6 5.3-4.2c4.5-3.6 5.9-5.1 5-5-.2 0-2.5 2.1-5.3 4.6zM301.8 1444.2c1.5 1.9 21.8 17.5 20.9 16.1-.4-.6-3.2-3-6.4-5.4-3.2-2.4-8-6.1-10.8-8.4-2.7-2.2-4.4-3.2-3.7-2.3zM1306.5 1456.6c-6.5 5.1-11.2 9.3-7.5 6.8 3.8-2.7 15-11.6 15-12 0-.7-.3-.5-7.5 5.2zM324.9 1462.4c1.3 1.6 5.1 4.1 5.1 3.3 0-.2-1.5-1.4-3.2-2.7-2.1-1.5-2.8-1.7-1.9-.6zM1294.9 1465.7c-1.3 1.6-1.2 1.7.4.4 1.6-1.3 2.1-2.1 1.3-2.1-.2 0-1 .8-1.7 1.7zM331.4 1466.8c.8 1.3 6.6 5.6 6.6 4.9 0-.3-1.7-1.7-3.7-3.3-2-1.5-3.3-2.3-2.9-1.6zM1289.5 1469.6l-3 2.6 3.3-2.2c1.7-1.2 3.2-2.3 3.2-2.6 0-.7-.4-.5-3.5 2.2zM1280.1 1475.9c-2.9 2.2-5.8 4.5-6.5 5.2-1.2 1.4 9-5.6 11.4-7.8 2.6-2.4.6-1.3-4.9 2.6zM342 1474.4c0 .2 1.4 1.4 3 2.6 1.7 1.2 3 1.9 3 1.6 0-.2-1.3-1.4-3-2.6-1.6-1.2-3-1.9-3-1.6zM349.4 1479.9c.7 1.1 4.6 3.5 4.6 2.8 0-.3-1.2-1.2-2.6-2.2-1.5-.9-2.3-1.2-2-.6zM355 1483.4c0 .2.8 1 1.8 1.7 1.5 1.3 1.6 1.2.3-.4s-2.1-2.1-2.1-1.3zM1265.9 1486.1l-2.4 2 2.8-1.7c1.5-.9 2.7-1.8 2.7-2 0-.8-.8-.4-3.1 1.7zM361 1487.4c0 .2 1.4 1.4 3 2.6 1.7 1.2 3 1.9 3 1.6 0-.2-1.3-1.4-3-2.6-1.6-1.2-3-1.9-3-1.6zM1256.9 1492.1c-2.3 1.9-2.3 2-.2 1 1.2-.6 2.5-1.6 2.8-2.1 1-1.6-.1-1.2-2.6 1.1zM370.4 1493.9c.3.5 2.2 1.8 4.2 3 1.9 1.2 3.3 1.7 3 1.2-.3-.5-2.2-1.8-4.2-3-1.9-1.2-3.3-1.7-3-1.2zM1247.7 1497.6c-3.1 1.9-5.7 3.8-5.7 4.1 0 .3 1.2-.3 2.7-1.2 1.4-1 4.1-2.6 6-3.7 2.8-1.7 4-2.8 3-2.8-.1 0-2.8 1.6-6 3.6zM382 1501.4c0 .3.9 1 2 1.6 1.1.6 2 .8 2 .6 0-.3-.9-1-2-1.6-1.1-.6-2-.8-2-.6zM1234.3 1506c-1.8 1.1-3.3 2.2-3.3 2.5 0 .2 1.6-.5 3.5-1.6 1.9-1.2 3.5-2.3 3.5-2.5 0-.6-.3-.5-3.7 1.6zM390 1506.4c0 .3.9 1 2 1.6 1.1.6 2 .8 2 .6 0-.3-.9-1-2-1.6-1.1-.6-2-.8-2-.6zM395 1509.4c0 .2.7.7 1.6 1 .8.3 1.2.2.9-.4-.6-1-2.5-1.4-2.5-.6zM1227.4 1510.6c-1.8 1.4-1.8 1.5.4.4 1.2-.6 2.2-1.3 2.2-1.5 0-.8-.5-.6-2.6 1.1zM402 1513.4c0 .3.9 1 2 1.6 1.1.6 2 .8 2 .6 0-.3-.9-1-2-1.6-1.1-.6-2-.8-2-.6zM1220.4 1514.6c-1.8 1.4-1.8 1.5.4.4 1.2-.6 2.2-1.3 2.2-1.5 0-.8-.5-.6-2.6 1.1zM407.7 1517.1c.7.7 1.5 1 1.8.7.3-.3-.2-.9-1.2-1.2-1.4-.6-1.5-.5-.6.5zM1214.8 1517.6c-3.8 2-3.6 2.8.2.9 1.7-.9 3-1.8 3-2 0-.7-.1-.6-3.2 1.1zM412.5 1519.5c2.2 1.9 10.6 6.3 9 4.8-.5-.5-3.2-2.2-6-3.7-2.7-1.5-4.1-2-3-1.1zM1207 1522c-.9.6-1 1-.3 1 .6 0 1.5-.5 1.8-1 .8-1.2.4-1.2-1.5 0zM1202.4 1524.6c-1.8 1.4-1.8 1.5.4.4 1.2-.6 2.2-1.3 2.2-1.5 0-.8-.5-.6-2.6 1.1zM684.9 1524.4c-.2.2-2.6.6-5.4.9-11.9 1.4-15.1 2-15.9 2.8-1.8 1.6 5.2 23.3 10.1 31.1 1.2 2 3.3 4.2 4.5 4.9 1.6.9 36.3 1.2 141.1 1.2 159.7 0 141.6 1.3 147.8-11.2 2.9-5.7 7.7-20.6 8.3-25.5.1-.8-.7-1.1-7.9-2.1-2.2-.3-6.5-.9-9.5-1.4-5.1-.9-272.2-1.6-273.1-.7zM423.7 1526.1c.7.7 1.5 1 1.8.7.3-.3-.2-.9-1.2-1.2-1.4-.6-1.5-.5-.6.5zM429 1528.4c0 .3 1.4 1.2 3 2.1 1.7.9 3 1.3 3 1.1 0-.3-1.3-1.2-3-2.1-1.6-.9-3-1.3-3-1.1zM1193.4 1529.6c-1.8 1.4-1.8 1.5.4.4 1.2-.6 2.2-1.3 2.2-1.5 0-.8-.5-.6-2.6 1.1zM1187.4 1532.6c-1.8 1.4-1.8 1.4.6.3 3.1-1.4 3.6-1.9 2.4-1.9-.6 0-1.9.7-3 1.6zM436 1532.4c0 .2.7.7 1.6 1 .8.3 1.2.2.9-.4-.6-1-2.5-1.4-2.5-.6zM1179.6 1536.5c-1.1.8-1.6 1.5-1 1.5.5 0 1.8-.7 2.8-1.5 1.1-.8 1.6-1.5 1-1.5-.5 0-1.8.7-2.8 1.5zM444 1536.4c0 .2.7.7 1.6 1 .8.3 1.2.2.9-.4-.6-1-2.5-1.4-2.5-.6zM1174.5 1539c-.3.6.1.7.9.4 1.8-.7 2.1-1.4.7-1.4-.6 0-1.3.4-1.6 1zM450 1539.4c0 .2.7.7 1.6 1 .8.3 1.2.2.9-.4-.6-1-2.5-1.4-2.5-.6zM1171 1541c-.9.6-1 1-.3 1 .6 0 1.5-.5 1.8-1 .8-1.2.4-1.2-1.5 0zM454.1 1541.4c.2.2 1.5.9 2.9 1.5 2.4 1.1 2.4 1.1.6-.3-1.6-1.3-4.9-2.4-3.5-1.2zM1164.5 1544c-.3.6.1.7.9.4 1.8-.7 2.1-1.4.7-1.4-.6 0-1.3.4-1.6 1zM463 1546c.8.5 2 1 2.5 1 .6 0 .3-.5-.5-1s-1.9-1-2.5-1c-.5 0-.3.5.5 1zM1159 1546.5c-1.4.8-2 1.4-1.5 1.4.6 0 2.1-.6 3.5-1.4 1.4-.8 2.1-1.4 1.5-1.4-.5 0-2.1.6-3.5 1.4zM471.2 1549.6c1 1 2 1.6 2.2 1.3.3-.3-.5-1.1-1.7-1.8-2.1-1.3-2.1-1.2-.5.5zM1154 1549c-.9.6-1 1-.3 1 .6 0 1.5-.5 1.8-1 .8-1.2.4-1.2-1.5 0zM475 1551.4c0 .2.7.7 1.6 1 .8.3 1.2.2.9-.4-.6-1-2.5-1.4-2.5-.6zM1146.4 1552.6c-1.8 1.4-1.8 1.4.6.3 3.1-1.4 3.6-1.9 2.4-1.9-.6 0-1.9.7-3 1.6zM482 1554.4c0 .2.7.7 1.6 1 .8.3 1.2.2.9-.4-.6-1-2.5-1.4-2.5-.6zM487 1557c.8.5 2 1 2.5 1 .6 0 .3-.5-.5-1s-1.9-1-2.5-1c-.5 0-.3.5.5 1zM1136 1557c-.8.5-1 1-.5 1 .6 0 1.7-.5 2.5-1s1.1-1 .5-1c-.5 0-1.7.5-2.5 1zM1129.3 1559.6c-1.8.8-3.3 1.6-3.3 1.9 0 .5 7-2.2 7.9-3 .8-.9-1.4-.4-4.6 1.1zM494 1560c.8.5 2 1 2.5 1 .6 0 .3-.5-.5-1s-1.9-1-2.5-1c-.5 0-.3.5.5 1zM498 1561.4c0 .2.7.7 1.6 1 .8.3 1.2.2.9-.4-.6-1-2.5-1.4-2.5-.6zM503 1564c.8.5 2 1 2.5 1 .6 0 .3-.5-.5-1s-1.9-1-2.5-1c-.5 0-.3.5.5 1zM1120 1564c-.9.6-1 1-.3 1 .6 0 1.5-.5 1.8-1 .8-1.2.4-1.2-1.5 0zM509.9 1566.5c1.8.8 3.6 1.5 4 1.5 1.3-.1-4.5-2.9-5.9-2.9-.8 0 0 .6 1.9 1.4zM1114.6 1565.9c-.4.5.3.7 1.4.4 2.3-.6 2.6-1.3.6-1.3-.8 0-1.7.4-2 .9zM1107 1569c-.8.5-1 1-.5 1 .6 0 1.7-.5 2.5-1s1.1-1 .5-1c-.5 0-1.7.5-2.5 1zM519 1570c.8.5 2 1 2.5 1 .6 0 .3-.5-.5-1s-1.9-1-2.5-1c-.5 0-.3.5.5 1zM1102 1571c-.8.5-1 1-.5 1 .6 0 1.7-.5 2.5-1s1.1-1 .5-1c-.5 0-1.7.5-2.5 1zM524 1572c.8.5 2 1 2.5 1 .6 0 .3-.5-.5-1s-1.9-1-2.5-1c-.5 0-.3.5.5 1zM1096.5 1573c-1.6.7-1.7.9-.3.9.9.1 2-.4 2.3-.9.7-1.1.7-1.1-2 0zM529 1574c.8.5 2 1 2.5 1 .6 0 .3-.5-.5-1s-1.9-1-2.5-1c-.5 0-.3.5.5 1zM1091 1575c-.8.5-1 1-.5 1 .6 0 1.7-.5 2.5-1s1.1-1 .5-1c-.5 0-1.7.5-2.5 1zM1086.5 1577c-.3.6.1.7.9.4 1.8-.7 2.1-1.4.7-1.4-.6 0-1.3.4-1.6 1zM538.8 1577.7c.7.3 1.6.2 1.9-.1.4-.3-.2-.6-1.3-.5-1.1 0-1.4.3-.6.6zM1083 1578c-.9.6-1 1-.3 1 .6 0 1.5-.5 1.8-1 .8-1.2.4-1.2-1.5 0zM546 1580c.8.5 2 1 2.5 1 .6 0 .3-.5-.5-1s-1.9-1-2.5-1c-.5 0-.3.5.5 1zM1078.8 1579.7c.7.3 1.6.2 1.9-.1.4-.3-.2-.6-1.3-.5-1.1 0-1.4.3-.6.6zM1074 1581c-.8.5-1 1-.5 1 .6 0 1.7-.5 2.5-1s1.1-1 .5-1c-.5 0-1.7.5-2.5 1zM551 1582c.8.5 2 1 2.5 1 .6 0 .3-.5-.5-1s-1.9-1-2.5-1c-.5 0-.3.5.5 1zM558.8 1584.2c.5.5 1.6.8 2.3.6.8-.3.3-.7-1-1.1-1.7-.4-2.1-.3-1.3.5zM1063.8 1584.7c.7.3 1.6.2 1.9-.1.4-.3-.2-.6-1.3-.5-1.1 0-1.4.3-.6.6zM566.5 1587c1.1.5 2.7.9 3.5.9.9 0 .8-.4-.5-.9-1.1-.5-2.7-.9-3.5-.9-.9 0-.8.4.5.9zM1055.5 1587c-1.3.6-1.5.9-.5.9.8 0 2.2-.4 3-.9 1.8-1.2.2-1.2-2.5 0zM1048.3 1589c-1.3.5-2.3 1.1-2.3 1.4 0 .7 4-.6 4.6-1.5.6-1 .6-1-2.3.1zM577.8 1590.2c.5.5 1.6.8 2.3.6.8-.3.3-.7-1-1.1-1.7-.4-2.1-.3-1.3.5zM1043 1591c-.9.6-1 1-.3 1 .6 0 1.5-.5 1.8-1 .8-1.2.4-1.2-1.5 0zM582 1591.4c0 .2.9.6 2 .9 1.1.3 1.8.1 1.4-.4-.5-.9-3.4-1.3-3.4-.5zM591 1594c.8.5 2 1 2.5 1 .6 0 .3-.5-.5-1s-1.9-1-2.5-1c-.5 0-.3.5.5 1zM1034.8 1593.7c.7.3 1.6.2 1.9-.1.4-.3-.2-.6-1.3-.5-1.1 0-1.4.3-.6.6zM1029 1595c-.9.6-1 1-.3 1 .6 0 1.5-.5 1.8-1 .8-1.2.4-1.2-1.5 0zM595.8 1595.7c.7.3 1.6.2 1.9-.1.4-.3-.2-.6-1.3-.5-1.1 0-1.4.3-.6.6zM1023.5 1596.5c-2.5 1.2-2.6 1.4-.5.9 1.4-.4 2.9-1 3.5-1.5 1.2-1.2.5-1.1-3 .6zM602.8 1597.7c.6.2 1.8.2 2.5 0 .6-.3.1-.5-1.3-.5-1.4 0-1.9.2-1.2.5zM607.8 1598.7c.7.3 1.6.2 1.9-.1.4-.3-.2-.6-1.3-.5-1.1 0-1.4.3-.6.6zM613.7 1600.1c.7.7 1.5 1 1.8.7.3-.3-.2-.9-1.2-1.2-1.4-.6-1.5-.5-.6.5zM1012.8 1599.7c.7.3 1.6.2 1.9-.1.4-.3-.2-.6-1.3-.5-1.1 0-1.4.3-.6.6zM1006 1601c-.8.5-1 1-.5 1 .6 0 1.7-.5 2.5-1s1.1-1 .5-1c-.5 0-1.7.5-2.5 1zM619.8 1601.7c.7.3 1.6.2 1.9-.1.4-.3-.2-.6-1.3-.5-1.1 0-1.4.3-.6.6zM623.8 1602.7c.7.3 1.6.2 1.9-.1.4-.3-.2-.6-1.3-.5-1.1 0-1.4.3-.6.6zM999.8 1602.7c.7.3 1.6.2 1.9-.1.4-.3-.2-.6-1.3-.5-1.1 0-1.4.3-.6.6zM627.8 1603.7c.7.3 1.6.2 1.9-.1.4-.3-.2-.6-1.3-.5-1.1 0-1.4.3-.6.6zM994.6 1603.9c-.4.5.3.7 1.4.4 2.3-.6 2.6-1.3.6-1.3-.8 0-1.7.4-2 .9zM634.8 1605.2c.5.5 1.6.8 2.3.6.8-.3.3-.7-1-1.1-1.7-.4-2.1-.3-1.3.5zM639.8 1606.2c.5.5 1.6.8 2.3.6.8-.3.3-.7-1-1.1-1.7-.4-2.1-.3-1.3.5zM986.8 1605.7c.7.3 1.6.2 1.9-.1.4-.3-.2-.6-1.3-.5-1.1 0-1.4.3-.6.6zM982.8 1606.7c.7.3 1.6.2 1.9-.1.4-.3-.2-.6-1.3-.5-1.1 0-1.4.3-.6.6zM647.5 1608c1.1.5 2.7.9 3.5.9.9 0 .8-.4-.5-.9-1.1-.5-2.7-.9-3.5-.9-.9 0-.8.4.5.9zM978.8 1607.7c.7.3 1.6.2 1.9-.1.4-.3-.2-.6-1.3-.5-1.1 0-1.4.3-.6.6zM970.5 1609c-.3.6.1.7.9.4 1.8-.7 2.1-1.4.7-1.4-.6 0-1.3.4-1.6 1zM658 1610c.8.5 2.4 1 3.4 1 2.6 0 1.8-.6-1.9-1.4-2.2-.5-2.6-.4-1.5.4zM966.8 1609.7c.7.3 1.6.2 1.9-.1.4-.3-.2-.6-1.3-.5-1.1 0-1.4.3-.6.6zM959.5 1611c-1.3.6-1.5.9-.5.9.8 0 2.2-.4 3-.9 1.8-1.2.2-1.2-2.5 0zM666.8 1611.7c.7.3 1.6.2 1.9-.1.4-.3-.2-.6-1.3-.5-1.1 0-1.4.3-.6.6zM671.8 1612.7c.7.3 1.6.2 1.9-.1.4-.3-.2-.6-1.3-.5-1.1 0-1.4.3-.6.6zM675.7 1613.1c.7.7 1.5 1 1.8.7.3-.3-.2-.9-1.2-1.2-1.4-.6-1.5-.5-.6.5zM949.6 1612.9c-.3.4.6.6 1.9.3 1.4-.2 2.5-.6 2.5-.8 0-.8-3.9-.4-4.4.5zM945.8 1613.7c.7.3 1.6.2 1.9-.1.4-.3-.2-.6-1.3-.5-1.1 0-1.4.3-.6.6zM683.8 1614.7c.6.2 1.8.2 2.5 0 .6-.3.1-.5-1.3-.5-1.4 0-1.9.2-1.2.5zM936.5 1615c-.3.6.1.7.9.4 1.8-.7 2.1-1.4.7-1.4-.6 0-1.3.4-1.6 1zM695.8 1616.7c.7.3 1.6.2 1.9-.1.4-.3-.2-.6-1.3-.5-1.1 0-1.4.3-.6.6zM924.8 1616.7c.7.3 1.6.2 1.9-.1.4-.3-.2-.6-1.3-.5-1.1 0-1.4.3-.6.6zM705 1617.4c0 .2.9.6 2 .9 1.1.3 1.8.1 1.4-.4-.5-.9-3.4-1.3-3.4-.5zM917.8 1617.7c.7.3 1.6.2 1.9-.1.4-.3-.2-.6-1.3-.5-1.1 0-1.4.3-.6.6zM710.8 1618.7c.6.2 1.8.2 2.5 0 .6-.3.1-.5-1.3-.5-1.4 0-1.9.2-1.2.5zM906.5 1619c-1.6.7-1.7.9-.3.9.9.1 2-.4 2.3-.9.7-1.1.7-1.1-2 0zM912.8 1618.7c.7.3 1.6.2 1.9-.1.4-.3-.2-.6-1.3-.5-1.1 0-1.4.3-.6.6zM717.8 1619.7c.6.2 1.8.2 2.5 0 .6-.3.1-.5-1.3-.5-1.4 0-1.9.2-1.2.5zM901.8 1619.7c.7.3 1.6.2 1.9-.1.4-.3-.2-.6-1.3-.5-1.1 0-1.4.3-.6.6zM730.8 1620.7c.6.2 1.8.2 2.5 0 .6-.3.1-.5-1.3-.5-1.4 0-1.9.2-1.2.5zM889.5 1621c-.3.6.1.7.9.4 1.8-.7 2.1-1.4.7-1.4-.6 0-1.3.4-1.6 1zM739.3 1621.7c.9.2 2.3.2 3 0 .6-.3-.1-.5-1.8-.5-1.6 0-2.2.2-1.2.5zM882.3 1621.7c.9.2 2.5.2 3.5 0 .9-.3.1-.5-1.8-.5-1.9 0-2.7.2-1.7.5zM750.3 1622.7c.9.2 2.3.2 3 0 .6-.3-.1-.5-1.8-.5-1.6 0-2.2.2-1.2.5zM763.7 1623.1c.7.7 1.5 1 1.8.7.3-.3-.2-.9-1.2-1.2-1.4-.6-1.5-.5-.6.5zM865.6 1622.9c-.3.4.6.6 1.9.3 1.4-.2 2.5-.6 2.5-.8 0-.8-3.9-.4-4.4.5zM871.8 1622.7c.6.2 1.8.2 2.5 0 .6-.3.1-.5-1.3-.5-1.4 0-1.9.2-1.2.5zM783 1624c0 .5.5 1 1.1 1 .5 0 .7-.5.4-1-.3-.6-.8-1-1.1-1-.2 0-.4.4-.4 1zM854.3 1623.7c.9.2 2.5.2 3.5 0 .9-.3.1-.5-1.8-.5-1.9 0-2.7.2-1.7.5zM798.8 1624.7c.7.3 1.6.2 1.9-.1.4-.3-.2-.6-1.3-.5-1.1 0-1.4.3-.6.6z"/></svg>